<svg width="800" height="600" viewBox="0 0 800 600" fill="none" xmlns="http://www.w3.org/2000/svg">
<g clip-path="url(#clip0_9629_101132)">
<path d="M0 200H4V204H0V200Z" fill="#7DB300"/>
<path d="M20 200H24V204H20V200Z" fill="#7DB300"/>
<path d="M40 200H44V204H40V200Z" fill="#7DB300"/>
<path d="M60 200H64V204H60V200Z" fill="#7DB300"/>
<path d="M80 200H84V204H80V200Z" fill="#7DB300"/>
<path d="M100 200H104V204H100V200Z" fill="#7DB300"/>
<path d="M120 200H124V204H120V200Z" fill="#7DB300"/>
<path d="M140 200H144V204H140V200Z" fill="#7DB300"/>
<path d="M160 200H164V204H160V200Z" fill="#7DB300"/>
<path d="M180 200H184V204H180V200Z" fill="#7DB300"/>
<path d="M200 200H204V204H200V200Z" fill="#7DB300"/>
<path d="M220 200H224V204H220V200Z" fill="#7DB300"/>
<path d="M240 200H244V204H240V200Z" fill="#7DB300"/>
<path d="M260 200H264V204H260V200Z" fill="#7DB300"/>
<path d="M280 200H284V204H280V200Z" fill="#7DB300"/>
<path d="M300 200H304V204H300V200Z" fill="#7DB300"/>
<path d="M320 200H324V204H320V200Z" fill="#7DB300"/>
<path d="M340 200H344V204H340V200Z" fill="#7DB300"/>
<path d="M360 200H364V204H360V200Z" fill="#7DB300"/>
<path d="M380 200H384V204H380V200Z" fill="#7DB300"/>
<path d="M400 200H404V204H400V200Z" fill="#7DB300"/>
<path d="M0 220H4V224H0V220Z" fill="#7DB300"/>
<path d="M20 220H24V224H20V220Z" fill="#7DB300"/>
<path d="M40 220H44V224H40V220Z" fill="#7DB300"/>
<path d="M60 220H64V224H60V220Z" fill="#7DB300"/>
<path d="M80 220H84V224H80V220Z" fill="#7DB300"/>
<path d="M100 220H104V224H100V220Z" fill="#7DB300"/>
<path d="M120 220H124V224H120V220Z" fill="#7DB300"/>
<path d="M140 220H144V224H140V220Z" fill="#7DB300"/>
<path d="M160 220H164V224H160V220Z" fill="#7DB300"/>
<path d="M180 220H184V224H180V220Z" fill="#7DB300"/>
<path d="M200 220H204V224H200V220Z" fill="#7DB300"/>
<path d="M220 220H224V224H220V220Z" fill="#7DB300"/>
<path d="M240 220H244V224H240V220Z" fill="#7DB300"/>
<path d="M260 220H264V224H260V220Z" fill="#7DB300"/>
<path d="M280 220H284V224H280V220Z" fill="#7DB300"/>
<path d="M300 220H304V224H300V220Z" fill="#7DB300"/>
<path d="M320 220H324V224H320V220Z" fill="#7DB300"/>
<path d="M340 220H344V224H340V220Z" fill="#7DB300"/>
<path d="M360 220H364V224H360V220Z" fill="#7DB300"/>
<path d="M380 220H384V224H380V220Z" fill="#7DB300"/>
<path d="M400 220H404V224H400V220Z" fill="#7DB300"/>
<path d="M0 240H4V244H0V240Z" fill="#7DB300"/>
<path d="M20 240H24V244H20V240Z" fill="#7DB300"/>
<path d="M40 240H44V244H40V240Z" fill="#7DB300"/>
<path d="M60 240H64V244H60V240Z" fill="#7DB300"/>
<path d="M80 240H84V244H80V240Z" fill="#7DB300"/>
<path d="M100 240H104V244H100V240Z" fill="#7DB300"/>
<path d="M120 240H124V244H120V240Z" fill="#7DB300"/>
<path d="M140 240H144V244H140V240Z" fill="#7DB300"/>
<path d="M160 240H164V244H160V240Z" fill="#7DB300"/>
<path d="M180 240H184V244H180V240Z" fill="#7DB300"/>
<path d="M200 240H204V244H200V240Z" fill="#7DB300"/>
<path d="M220 240H224V244H220V240Z" fill="#7DB300"/>
<path d="M240 240H244V244H240V240Z" fill="#7DB300"/>
<path d="M260 240H264V244H260V240Z" fill="#7DB300"/>
<path d="M280 240H284V244H280V240Z" fill="#7DB300"/>
<path d="M300 240H304V244H300V240Z" fill="#7DB300"/>
<path d="M320 240H324V244H320V240Z" fill="#7DB300"/>
<path d="M340 240H344V244H340V240Z" fill="#7DB300"/>
<path d="M360 240H364V244H360V240Z" fill="#7DB300"/>
<path d="M380 240H384V244H380V240Z" fill="#7DB300"/>
<path d="M400 240H404V244H400V240Z" fill="#7DB300"/>
<path d="M0 260H4V264H0V260Z" fill="#7DB300"/>
<path d="M20 260H24V264H20V260Z" fill="#7DB300"/>
<path d="M40 260H44V264H40V260Z" fill="#7DB300"/>
<path d="M60 260H64V264H60V260Z" fill="#7DB300"/>
<path d="M80 260H84V264H80V260Z" fill="#7DB300"/>
<path d="M100 260H104V264H100V260Z" fill="#7DB300"/>
<path d="M120 260H124V264H120V260Z" fill="#7DB300"/>
<path d="M140 260H144V264H140V260Z" fill="#7DB300"/>
<path d="M160 260H164V264H160V260Z" fill="#7DB300"/>
<path d="M180 260H184V264H180V260Z" fill="#7DB300"/>
<path d="M200 260H204V264H200V260Z" fill="#7DB300"/>
<path d="M220 260H224V264H220V260Z" fill="#7DB300"/>
<path d="M240 260H244V264H240V260Z" fill="#7DB300"/>
<path d="M260 260H264V264H260V260Z" fill="#7DB300"/>
<path d="M280 260H284V264H280V260Z" fill="#7DB300"/>
<path d="M300 260H304V264H300V260Z" fill="#7DB300"/>
<path d="M320 260H324V264H320V260Z" fill="#7DB300"/>
<path d="M340 260H344V264H340V260Z" fill="#7DB300"/>
<path d="M360 260H364V264H360V260Z" fill="#7DB300"/>
<path d="M380 260H384V264H380V260Z" fill="#7DB300"/>
<path d="M400 260H404V264H400V260Z" fill="#7DB300"/>
<path d="M0 280H4V284H0V280Z" fill="#7DB300"/>
<path d="M20 280H24V284H20V280Z" fill="#7DB300"/>
<path d="M40 280H44V284H40V280Z" fill="#7DB300"/>
<path d="M60 280H64V284H60V280Z" fill="#7DB300"/>
<path d="M80 280H84V284H80V280Z" fill="#7DB300"/>
<path d="M100 280H104V284H100V280Z" fill="#7DB300"/>
<path d="M120 280H124V284H120V280Z" fill="#7DB300"/>
<path d="M140 280H144V284H140V280Z" fill="#7DB300"/>
<path d="M160 280H164V284H160V280Z" fill="#7DB300"/>
<path d="M180 280H184V284H180V280Z" fill="#7DB300"/>
<path d="M200 280H204V284H200V280Z" fill="#7DB300"/>
<path d="M220 280H224V284H220V280Z" fill="#7DB300"/>
<path d="M240 280H244V284H240V280Z" fill="#7DB300"/>
<path d="M260 280H264V284H260V280Z" fill="#7DB300"/>
<path d="M280 280H284V284H280V280Z" fill="#7DB300"/>
<path d="M300 280H304V284H300V280Z" fill="#7DB300"/>
<path d="M320 280H324V284H320V280Z" fill="#7DB300"/>
<path d="M340 280H344V284H340V280Z" fill="#7DB300"/>
<path d="M360 280H364V284H360V280Z" fill="#7DB300"/>
<path d="M380 280H384V284H380V280Z" fill="#7DB300"/>
<path d="M400 280H404V284H400V280Z" fill="#7DB300"/>
<path d="M0 300H4V304H0V300Z" fill="#7DB300"/>
<path d="M20 300H24V304H20V300Z" fill="#7DB300"/>
<path d="M40 300H44V304H40V300Z" fill="#7DB300"/>
<path d="M60 300H64V304H60V300Z" fill="#7DB300"/>
<path d="M80 300H84V304H80V300Z" fill="#7DB300"/>
<path d="M100 300H104V304H100V300Z" fill="#7DB300"/>
<path d="M120 300H124V304H120V300Z" fill="#7DB300"/>
<path d="M140 300H144V304H140V300Z" fill="#7DB300"/>
<path d="M160 300H164V304H160V300Z" fill="#7DB300"/>
<path d="M180 300H184V304H180V300Z" fill="#7DB300"/>
<path d="M200 300H204V304H200V300Z" fill="#7DB300"/>
<path d="M220 300H224V304H220V300Z" fill="#7DB300"/>
<path d="M240 300H244V304H240V300Z" fill="#7DB300"/>
<path d="M260 300H264V304H260V300Z" fill="#7DB300"/>
<path d="M280 300H284V304H280V300Z" fill="#7DB300"/>
<path d="M300 300H304V304H300V300Z" fill="#7DB300"/>
<path d="M320 300H324V304H320V300Z" fill="#7DB300"/>
<path d="M340 300H344V304H340V300Z" fill="#7DB300"/>
<path d="M360 300H364V304H360V300Z" fill="#7DB300"/>
<path d="M380 300H384V304H380V300Z" fill="#7DB300"/>
<path d="M400 300H404V304H400V300Z" fill="#7DB300"/>
<path d="M0 320H4V324H0V320Z" fill="#7DB300"/>
<path d="M20 320H24V324H20V320Z" fill="#7DB300"/>
<path d="M40 320H44V324H40V320Z" fill="#7DB300"/>
<path d="M60 320H64V324H60V320Z" fill="#7DB300"/>
<path d="M80 320H84V324H80V320Z" fill="#7DB300"/>
<path d="M100 320H104V324H100V320Z" fill="#7DB300"/>
<path d="M120 320H124V324H120V320Z" fill="#7DB300"/>
<path d="M140 320H144V324H140V320Z" fill="#7DB300"/>
<path d="M160 320H164V324H160V320Z" fill="#7DB300"/>
<path d="M180 320H184V324H180V320Z" fill="#7DB300"/>
<path d="M200 320H204V324H200V320Z" fill="#7DB300"/>
<path d="M220 320H224V324H220V320Z" fill="#7DB300"/>
<path d="M240 320H244V324H240V320Z" fill="#7DB300"/>
<path d="M260 320H264V324H260V320Z" fill="#7DB300"/>
<path d="M280 320H284V324H280V320Z" fill="#7DB300"/>
<path d="M300 320H304V324H300V320Z" fill="#7DB300"/>
<path d="M320 320H324V324H320V320Z" fill="#7DB300"/>
<path d="M340 320H344V324H340V320Z" fill="#7DB300"/>
<path d="M360 320H364V324H360V320Z" fill="#7DB300"/>
<path d="M380 320H384V324H380V320Z" fill="#7DB300"/>
<path d="M400 320H404V324H400V320Z" fill="#7DB300"/>
<path d="M0 340H4V344H0V340Z" fill="#7DB300"/>
<path d="M20 340H24V344H20V340Z" fill="#7DB300"/>
<path d="M40 340H44V344H40V340Z" fill="#7DB300"/>
<path d="M60 340H64V344H60V340Z" fill="#7DB300"/>
<path d="M80 340H84V344H80V340Z" fill="#7DB300"/>
<path d="M100 340H104V344H100V340Z" fill="#7DB300"/>
<path d="M120 340H124V344H120V340Z" fill="#7DB300"/>
<path d="M140 340H144V344H140V340Z" fill="#7DB300"/>
<path d="M160 340H164V344H160V340Z" fill="#7DB300"/>
<path d="M180 340H184V344H180V340Z" fill="#7DB300"/>
<path d="M200 340H204V344H200V340Z" fill="#7DB300"/>
<path d="M220 340H224V344H220V340Z" fill="#7DB300"/>
<path d="M240 340H244V344H240V340Z" fill="#7DB300"/>
<path d="M260 340H264V344H260V340Z" fill="#7DB300"/>
<path d="M280 340H284V344H280V340Z" fill="#7DB300"/>
<path d="M300 340H304V344H300V340Z" fill="#7DB300"/>
<path d="M320 340H324V344H320V340Z" fill="#7DB300"/>
<path d="M340 340H344V344H340V340Z" fill="#7DB300"/>
<path d="M360 340H364V344H360V340Z" fill="#7DB300"/>
<path d="M380 340H384V344H380V340Z" fill="#7DB300"/>
<path d="M400 340H404V344H400V340Z" fill="#7DB300"/>
<path d="M0 360H4V364H0V360Z" fill="#7DB300"/>
<path d="M20 360H24V364H20V360Z" fill="#7DB300"/>
<path d="M40 360H44V364H40V360Z" fill="#7DB300"/>
<path d="M60 360H64V364H60V360Z" fill="#7DB300"/>
<path d="M80 360H84V364H80V360Z" fill="#7DB300"/>
<path d="M100 360H104V364H100V360Z" fill="#7DB300"/>
<path d="M120 360H124V364H120V360Z" fill="#7DB300"/>
<path d="M140 360H144V364H140V360Z" fill="#7DB300"/>
<path d="M160 360H164V364H160V360Z" fill="#7DB300"/>
<path d="M180 360H184V364H180V360Z" fill="#7DB300"/>
<path d="M200 360H204V364H200V360Z" fill="#7DB300"/>
<path d="M220 360H224V364H220V360Z" fill="#7DB300"/>
<path d="M240 360H244V364H240V360Z" fill="#7DB300"/>
<path d="M260 360H264V364H260V360Z" fill="#7DB300"/>
<path d="M280 360H284V364H280V360Z" fill="#7DB300"/>
<path d="M300 360H304V364H300V360Z" fill="#7DB300"/>
<path d="M320 360H324V364H320V360Z" fill="#7DB300"/>
<path d="M340 360H344V364H340V360Z" fill="#7DB300"/>
<path d="M360 360H364V364H360V360Z" fill="#7DB300"/>
<path d="M380 360H384V364H380V360Z" fill="#7DB300"/>
<path d="M400 360H404V364H400V360Z" fill="#7DB300"/>
<path d="M0 380H4V384H0V380Z" fill="#7DB300"/>
<path d="M20 380H24V384H20V380Z" fill="#7DB300"/>
<path d="M40 380H44V384H40V380Z" fill="#7DB300"/>
<path d="M60 380H64V384H60V380Z" fill="#7DB300"/>
<path d="M80 380H84V384H80V380Z" fill="#7DB300"/>
<path d="M100 380H104V384H100V380Z" fill="#7DB300"/>
<path d="M120 380H124V384H120V380Z" fill="#7DB300"/>
<path d="M140 380H144V384H140V380Z" fill="#7DB300"/>
<path d="M160 380H164V384H160V380Z" fill="#7DB300"/>
<path d="M180 380H184V384H180V380Z" fill="#7DB300"/>
<path d="M200 380H204V384H200V380Z" fill="#7DB300"/>
<path d="M220 380H224V384H220V380Z" fill="#7DB300"/>
<path d="M240 380H244V384H240V380Z" fill="#7DB300"/>
<path d="M260 380H264V384H260V380Z" fill="#7DB300"/>
<path d="M280 380H284V384H280V380Z" fill="#7DB300"/>
<path d="M300 380H304V384H300V380Z" fill="#7DB300"/>
<path d="M320 380H324V384H320V380Z" fill="#7DB300"/>
<path d="M340 380H344V384H340V380Z" fill="#7DB300"/>
<path d="M360 380H364V384H360V380Z" fill="#7DB300"/>
<path d="M380 380H384V384H380V380Z" fill="#7DB300"/>
<path d="M400 380H404V384H400V380Z" fill="#7DB300"/>
<path d="M0 400H4V404H0V400Z" fill="#7DB300"/>
<path d="M20 400H24V404H20V400Z" fill="#7DB300"/>
<path d="M40 400H44V404H40V400Z" fill="#7DB300"/>
<path d="M60 400H64V404H60V400Z" fill="#7DB300"/>
<path d="M80 400H84V404H80V400Z" fill="#7DB300"/>
<path d="M100 400H104V404H100V400Z" fill="#7DB300"/>
<path d="M120 400H124V404H120V400Z" fill="#7DB300"/>
<path d="M140 400H144V404H140V400Z" fill="#7DB300"/>
<path d="M160 400H164V404H160V400Z" fill="#7DB300"/>
<path d="M180 400H184V404H180V400Z" fill="#7DB300"/>
<path d="M200 400H204V404H200V400Z" fill="#7DB300"/>
<path d="M220 400H224V404H220V400Z" fill="#7DB300"/>
<path d="M240 400H244V404H240V400Z" fill="#7DB300"/>
<path d="M260 400H264V404H260V400Z" fill="#7DB300"/>
<path d="M280 400H284V404H280V400Z" fill="#7DB300"/>
<path d="M300 400H304V404H300V400Z" fill="#7DB300"/>
<path d="M320 400H324V404H320V400Z" fill="#7DB300"/>
<path d="M340 400H344V404H340V400Z" fill="#7DB300"/>
<path d="M360 400H364V404H360V400Z" fill="#7DB300"/>
<path d="M380 400H384V404H380V400Z" fill="#7DB300"/>
<path d="M400 400H404V404H400V400Z" fill="#7DB300"/>
<path d="M0 420H4V424H0V420Z" fill="#7DB300"/>
<path d="M20 420H24V424H20V420Z" fill="#7DB300"/>
<path d="M40 420H44V424H40V420Z" fill="#7DB300"/>
<path d="M60 420H64V424H60V420Z" fill="#7DB300"/>
<path d="M80 420H84V424H80V420Z" fill="#7DB300"/>
<path d="M100 420H104V424H100V420Z" fill="#7DB300"/>
<path d="M120 420H124V424H120V420Z" fill="#7DB300"/>
<path d="M140 420H144V424H140V420Z" fill="#7DB300"/>
<path d="M160 420H164V424H160V420Z" fill="#7DB300"/>
<path d="M180 420H184V424H180V420Z" fill="#7DB300"/>
<path d="M200 420H204V424H200V420Z" fill="#7DB300"/>
<path d="M220 420H224V424H220V420Z" fill="#7DB300"/>
<path d="M240 420H244V424H240V420Z" fill="#7DB300"/>
<path d="M260 420H264V424H260V420Z" fill="#7DB300"/>
<path d="M280 420H284V424H280V420Z" fill="#7DB300"/>
<path d="M300 420H304V424H300V420Z" fill="#7DB300"/>
<path d="M320 420H324V424H320V420Z" fill="#7DB300"/>
<path d="M340 420H344V424H340V420Z" fill="#7DB300"/>
<path d="M360 420H364V424H360V420Z" fill="#7DB300"/>
<path d="M380 420H384V424H380V420Z" fill="#7DB300"/>
<path d="M400 420H404V424H400V420Z" fill="#7DB300"/>
<path d="M0 440H4V444H0V440Z" fill="#7DB300"/>
<path d="M20 440H24V444H20V440Z" fill="#7DB300"/>
<path d="M40 440H44V444H40V440Z" fill="#7DB300"/>
<path d="M60 440H64V444H60V440Z" fill="#7DB300"/>
<path d="M80 440H84V444H80V440Z" fill="#7DB300"/>
<path d="M100 440H104V444H100V440Z" fill="#7DB300"/>
<path d="M120 440H124V444H120V440Z" fill="#7DB300"/>
<path d="M140 440H144V444H140V440Z" fill="#7DB300"/>
<path d="M160 440H164V444H160V440Z" fill="#7DB300"/>
<path d="M180 440H184V444H180V440Z" fill="#7DB300"/>
<path d="M200 440H204V444H200V440Z" fill="#7DB300"/>
<path d="M220 440H224V444H220V440Z" fill="#7DB300"/>
<path d="M240 440H244V444H240V440Z" fill="#7DB300"/>
<path d="M260 440H264V444H260V440Z" fill="#7DB300"/>
<path d="M280 440H284V444H280V440Z" fill="#7DB300"/>
<path d="M300 440H304V444H300V440Z" fill="#7DB300"/>
<path d="M320 440H324V444H320V440Z" fill="#7DB300"/>
<path d="M340 440H344V444H340V440Z" fill="#7DB300"/>
<path d="M360 440H364V444H360V440Z" fill="#7DB300"/>
<path d="M380 440H384V444H380V440Z" fill="#7DB300"/>
<path d="M400 440H404V444H400V440Z" fill="#7DB300"/>
<path d="M0 460H4V464H0V460Z" fill="#7DB300"/>
<path d="M20 460H24V464H20V460Z" fill="#7DB300"/>
<path d="M40 460H44V464H40V460Z" fill="#7DB300"/>
<path d="M60 460H64V464H60V460Z" fill="#7DB300"/>
<path d="M80 460H84V464H80V460Z" fill="#7DB300"/>
<path d="M100 460H104V464H100V460Z" fill="#7DB300"/>
<path d="M120 460H124V464H120V460Z" fill="#7DB300"/>
<path d="M140 460H144V464H140V460Z" fill="#7DB300"/>
<path d="M160 460H164V464H160V460Z" fill="#7DB300"/>
<path d="M180 460H184V464H180V460Z" fill="#7DB300"/>
<path d="M200 460H204V464H200V460Z" fill="#7DB300"/>
<path d="M220 460H224V464H220V460Z" fill="#7DB300"/>
<path d="M240 460H244V464H240V460Z" fill="#7DB300"/>
<path d="M260 460H264V464H260V460Z" fill="#7DB300"/>
<path d="M280 460H284V464H280V460Z" fill="#7DB300"/>
<path d="M300 460H304V464H300V460Z" fill="#7DB300"/>
<path d="M320 460H324V464H320V460Z" fill="#7DB300"/>
<path d="M340 460H344V464H340V460Z" fill="#7DB300"/>
<path d="M360 460H364V464H360V460Z" fill="#7DB300"/>
<path d="M380 460H384V464H380V460Z" fill="#7DB300"/>
<path d="M400 460H404V464H400V460Z" fill="#7DB300"/>
<path d="M0 480H4V484H0V480Z" fill="#7DB300"/>
<path d="M20 480H24V484H20V480Z" fill="#7DB300"/>
<path d="M40 480H44V484H40V480Z" fill="#7DB300"/>
<path d="M60 480H64V484H60V480Z" fill="#7DB300"/>
<path d="M80 480H84V484H80V480Z" fill="#7DB300"/>
<path d="M100 480H104V484H100V480Z" fill="#7DB300"/>
<path d="M120 480H124V484H120V480Z" fill="#7DB300"/>
<path d="M140 480H144V484H140V480Z" fill="#7DB300"/>
<path d="M160 480H164V484H160V480Z" fill="#7DB300"/>
<path d="M180 480H184V484H180V480Z" fill="#7DB300"/>
<path d="M200 480H204V484H200V480Z" fill="#7DB300"/>
<path d="M220 480H224V484H220V480Z" fill="#7DB300"/>
<path d="M240 480H244V484H240V480Z" fill="#7DB300"/>
<path d="M260 480H264V484H260V480Z" fill="#7DB300"/>
<path d="M280 480H284V484H280V480Z" fill="#7DB300"/>
<path d="M300 480H304V484H300V480Z" fill="#7DB300"/>
<path d="M320 480H324V484H320V480Z" fill="#7DB300"/>
<path d="M340 480H344V484H340V480Z" fill="#7DB300"/>
<path d="M360 480H364V484H360V480Z" fill="#7DB300"/>
<path d="M380 480H384V484H380V480Z" fill="#7DB300"/>
<path d="M400 480H404V484H400V480Z" fill="#7DB300"/>
<path d="M0 500H4V504H0V500Z" fill="#7DB300"/>
<path d="M20 500H24V504H20V500Z" fill="#7DB300"/>
<path d="M40 500H44V504H40V500Z" fill="#7DB300"/>
<path d="M60 500H64V504H60V500Z" fill="#7DB300"/>
<path d="M80 500H84V504H80V500Z" fill="#7DB300"/>
<path d="M100 500H104V504H100V500Z" fill="#7DB300"/>
<path d="M120 500H124V504H120V500Z" fill="#7DB300"/>
<path d="M140 500H144V504H140V500Z" fill="#7DB300"/>
<path d="M160 500H164V504H160V500Z" fill="#7DB300"/>
<path d="M180 500H184V504H180V500Z" fill="#7DB300"/>
<path d="M200 500H204V504H200V500Z" fill="#7DB300"/>
<path d="M220 500H224V504H220V500Z" fill="#7DB300"/>
<path d="M240 500H244V504H240V500Z" fill="#7DB300"/>
<path d="M260 500H264V504H260V500Z" fill="#7DB300"/>
<path d="M280 500H284V504H280V500Z" fill="#7DB300"/>
<path d="M300 500H304V504H300V500Z" fill="#7DB300"/>
<path d="M320 500H324V504H320V500Z" fill="#7DB300"/>
<path d="M340 500H344V504H340V500Z" fill="#7DB300"/>
<path d="M360 500H364V504H360V500Z" fill="#7DB300"/>
<path d="M380 500H384V504H380V500Z" fill="#7DB300"/>
<path d="M400 500H404V504H400V500Z" fill="#7DB300"/>
<path d="M0 520H4V524H0V520Z" fill="#7DB300"/>
<path d="M20 520H24V524H20V520Z" fill="#7DB300"/>
<path d="M40 520H44V524H40V520Z" fill="#7DB300"/>
<path d="M60 520H64V524H60V520Z" fill="#7DB300"/>
<path d="M80 520H84V524H80V520Z" fill="#7DB300"/>
<path d="M100 520H104V524H100V520Z" fill="#7DB300"/>
<path d="M120 520H124V524H120V520Z" fill="#7DB300"/>
<path d="M140 520H144V524H140V520Z" fill="#7DB300"/>
<path d="M160 520H164V524H160V520Z" fill="#7DB300"/>
<path d="M180 520H184V524H180V520Z" fill="#7DB300"/>
<path d="M200 520H204V524H200V520Z" fill="#7DB300"/>
<path d="M220 520H224V524H220V520Z" fill="#7DB300"/>
<path d="M240 520H244V524H240V520Z" fill="#7DB300"/>
<path d="M260 520H264V524H260V520Z" fill="#7DB300"/>
<path d="M280 520H284V524H280V520Z" fill="#7DB300"/>
<path d="M300 520H304V524H300V520Z" fill="#7DB300"/>
<path d="M320 520H324V524H320V520Z" fill="#7DB300"/>
<path d="M340 520H344V524H340V520Z" fill="#7DB300"/>
<path d="M360 520H364V524H360V520Z" fill="#7DB300"/>
<path d="M380 520H384V524H380V520Z" fill="#7DB300"/>
<path d="M400 520H404V524H400V520Z" fill="#7DB300"/>
<path d="M0 540H4V544H0V540Z" fill="#7DB300"/>
<path d="M20 540H24V544H20V540Z" fill="#7DB300"/>
<path d="M40 540H44V544H40V540Z" fill="#7DB300"/>
<path d="M60 540H64V544H60V540Z" fill="#7DB300"/>
<path d="M80 540H84V544H80V540Z" fill="#7DB300"/>
<path d="M100 540H104V544H100V540Z" fill="#7DB300"/>
<path d="M120 540H124V544H120V540Z" fill="#7DB300"/>
<path d="M140 540H144V544H140V540Z" fill="#7DB300"/>
<path d="M160 540H164V544H160V540Z" fill="#7DB300"/>
<path d="M180 540H184V544H180V540Z" fill="#7DB300"/>
<path d="M200 540H204V544H200V540Z" fill="#7DB300"/>
<path d="M220 540H224V544H220V540Z" fill="#7DB300"/>
<path d="M240 540H244V544H240V540Z" fill="#7DB300"/>
<path d="M260 540H264V544H260V540Z" fill="#7DB300"/>
<path d="M280 540H284V544H280V540Z" fill="#7DB300"/>
<path d="M300 540H304V544H300V540Z" fill="#7DB300"/>
<path d="M320 540H324V544H320V540Z" fill="#7DB300"/>
<path d="M340 540H344V544H340V540Z" fill="#7DB300"/>
<path d="M360 540H364V544H360V540Z" fill="#7DB300"/>
<path d="M380 540H384V544H380V540Z" fill="#7DB300"/>
<path d="M400 540H404V544H400V540Z" fill="#7DB300"/>
<path d="M0 560H4V564H0V560Z" fill="#7DB300"/>
<path d="M20 560H24V564H20V560Z" fill="#7DB300"/>
<path d="M40 560H44V564H40V560Z" fill="#7DB300"/>
<path d="M60 560H64V564H60V560Z" fill="#7DB300"/>
<path d="M80 560H84V564H80V560Z" fill="#7DB300"/>
<path d="M100 560H104V564H100V560Z" fill="#7DB300"/>
<path d="M120 560H124V564H120V560Z" fill="#7DB300"/>
<path d="M140 560H144V564H140V560Z" fill="#7DB300"/>
<path d="M160 560H164V564H160V560Z" fill="#7DB300"/>
<path d="M180 560H184V564H180V560Z" fill="#7DB300"/>
<path d="M200 560H204V564H200V560Z" fill="#7DB300"/>
<path d="M220 560H224V564H220V560Z" fill="#7DB300"/>
<path d="M240 560H244V564H240V560Z" fill="#7DB300"/>
<path d="M260 560H264V564H260V560Z" fill="#7DB300"/>
<path d="M280 560H284V564H280V560Z" fill="#7DB300"/>
<path d="M300 560H304V564H300V560Z" fill="#7DB300"/>
<path d="M320 560H324V564H320V560Z" fill="#7DB300"/>
<path d="M340 560H344V564H340V560Z" fill="#7DB300"/>
<path d="M360 560H364V564H360V560Z" fill="#7DB300"/>
<path d="M380 560H384V564H380V560Z" fill="#7DB300"/>
<path d="M400 560H404V564H400V560Z" fill="#7DB300"/>
<path d="M0 580H4V584H0V580Z" fill="#7DB300"/>
<path d="M20 580H24V584H20V580Z" fill="#7DB300"/>
<path d="M40 580H44V584H40V580Z" fill="#7DB300"/>
<path d="M60 580H64V584H60V580Z" fill="#7DB300"/>
<path d="M80 580H84V584H80V580Z" fill="#7DB300"/>
<path d="M100 580H104V584H100V580Z" fill="#7DB300"/>
<path d="M120 580H124V584H120V580Z" fill="#7DB300"/>
<path d="M140 580H144V584H140V580Z" fill="#7DB300"/>
<path d="M160 580H164V584H160V580Z" fill="#7DB300"/>
<path d="M180 580H184V584H180V580Z" fill="#7DB300"/>
<path d="M200 580H204V584H200V580Z" fill="#7DB300"/>
<path d="M220 580H224V584H220V580Z" fill="#7DB300"/>
<path d="M240 580H244V584H240V580Z" fill="#7DB300"/>
<path d="M260 580H264V584H260V580Z" fill="#7DB300"/>
<path d="M280 580H284V584H280V580Z" fill="#7DB300"/>
<path d="M300 580H304V584H300V580Z" fill="#7DB300"/>
<path d="M320 580H324V584H320V580Z" fill="#7DB300"/>
<path d="M340 580H344V584H340V580Z" fill="#7DB300"/>
<path d="M360 580H364V584H360V580Z" fill="#7DB300"/>
<path d="M380 580H384V584H380V580Z" fill="#7DB300"/>
<path d="M400 580H404V584H400V580Z" fill="#7DB300"/>
<path d="M0 600H4V604H0V600Z" fill="#7DB300"/>
<path d="M20 600H24V604H20V600Z" fill="#7DB300"/>
<path d="M40 600H44V604H40V600Z" fill="#7DB300"/>
<path d="M60 600H64V604H60V600Z" fill="#7DB300"/>
<path d="M80 600H84V604H80V600Z" fill="#7DB300"/>
<path d="M100 600H104V604H100V600Z" fill="#7DB300"/>
<path d="M120 600H124V604H120V600Z" fill="#7DB300"/>
<path d="M140 600H144V604H140V600Z" fill="#7DB300"/>
<path d="M160 600H164V604H160V600Z" fill="#7DB300"/>
<path d="M180 600H184V604H180V600Z" fill="#7DB300"/>
<path d="M200 600H204V604H200V600Z" fill="#7DB300"/>
<path d="M220 600H224V604H220V600Z" fill="#7DB300"/>
<path d="M240 600H244V604H240V600Z" fill="#7DB300"/>
<path d="M260 600H264V604H260V600Z" fill="#7DB300"/>
<path d="M280 600H284V604H280V600Z" fill="#7DB300"/>
<path d="M300 600H304V604H300V600Z" fill="#7DB300"/>
<path d="M320 600H324V604H320V600Z" fill="#7DB300"/>
<path d="M340 600H344V604H340V600Z" fill="#7DB300"/>
<path d="M360 600H364V604H360V600Z" fill="#7DB300"/>
<path d="M380 600H384V604H380V600Z" fill="#7DB300"/>
<path d="M400 600H404V604H400V600Z" fill="#7DB300"/>
</g>
<g clip-path="url(#clip1_9629_101132)">
<path d="M400 0H404V4H400V0Z" fill="#7DB300"/>
<path d="M420 0H424V4H420V0Z" fill="#7DB300"/>
<path d="M440 0H444V4H440V0Z" fill="#7DB300"/>
<path d="M460 0H464V4H460V0Z" fill="#7DB300"/>
<path d="M480 0H484V4H480V0Z" fill="#7DB300"/>
<path d="M500 0H504V4H500V0Z" fill="#7DB300"/>
<path d="M520 0H524V4H520V0Z" fill="#7DB300"/>
<path d="M540 0H544V4H540V0Z" fill="#7DB300"/>
<path d="M560 0H564V4H560V0Z" fill="#7DB300"/>
<path d="M580 0H584V4H580V0Z" fill="#7DB300"/>
<path d="M600 0H604V4H600V0Z" fill="#7DB300"/>
<path d="M620 0H624V4H620V0Z" fill="#7DB300"/>
<path d="M640 0H644V4H640V0Z" fill="#7DB300"/>
<path d="M660 0H664V4H660V0Z" fill="#7DB300"/>
<path d="M680 0H684V4H680V0Z" fill="#7DB300"/>
<path d="M700 0H704V4H700V0Z" fill="#7DB300"/>
<path d="M720 0H724V4H720V0Z" fill="#7DB300"/>
<path d="M740 0H744V4H740V0Z" fill="#7DB300"/>
<path d="M760 0H764V4H760V0Z" fill="#7DB300"/>
<path d="M780 0H784V4H780V0Z" fill="#7DB300"/>
<path d="M800 0H804V4H800V0Z" fill="#7DB300"/>
<path d="M400 20H404V24H400V20Z" fill="#7DB300"/>
<path d="M420 20H424V24H420V20Z" fill="#7DB300"/>
<path d="M440 20H444V24H440V20Z" fill="#7DB300"/>
<path d="M460 20H464V24H460V20Z" fill="#7DB300"/>
<path d="M480 20H484V24H480V20Z" fill="#7DB300"/>
<path d="M500 20H504V24H500V20Z" fill="#7DB300"/>
<path d="M520 20H524V24H520V20Z" fill="#7DB300"/>
<path d="M540 20H544V24H540V20Z" fill="#7DB300"/>
<path d="M560 20H564V24H560V20Z" fill="#7DB300"/>
<path d="M580 20H584V24H580V20Z" fill="#7DB300"/>
<path d="M600 20H604V24H600V20Z" fill="#7DB300"/>
<path d="M620 20H624V24H620V20Z" fill="#7DB300"/>
<path d="M640 20H644V24H640V20Z" fill="#7DB300"/>
<path d="M660 20H664V24H660V20Z" fill="#7DB300"/>
<path d="M680 20H684V24H680V20Z" fill="#7DB300"/>
<path d="M700 20H704V24H700V20Z" fill="#7DB300"/>
<path d="M720 20H724V24H720V20Z" fill="#7DB300"/>
<path d="M740 20H744V24H740V20Z" fill="#7DB300"/>
<path d="M760 20H764V24H760V20Z" fill="#7DB300"/>
<path d="M780 20H784V24H780V20Z" fill="#7DB300"/>
<path d="M800 20H804V24H800V20Z" fill="#7DB300"/>
<path d="M400 40H404V44H400V40Z" fill="#7DB300"/>
<path d="M420 40H424V44H420V40Z" fill="#7DB300"/>
<path d="M440 40H444V44H440V40Z" fill="#7DB300"/>
<path d="M460 40H464V44H460V40Z" fill="#7DB300"/>
<path d="M480 40H484V44H480V40Z" fill="#7DB300"/>
<path d="M500 40H504V44H500V40Z" fill="#7DB300"/>
<path d="M520 40H524V44H520V40Z" fill="#7DB300"/>
<path d="M540 40H544V44H540V40Z" fill="#7DB300"/>
<path d="M560 40H564V44H560V40Z" fill="#7DB300"/>
<path d="M580 40H584V44H580V40Z" fill="#7DB300"/>
<path d="M600 40H604V44H600V40Z" fill="#7DB300"/>
<path d="M620 40H624V44H620V40Z" fill="#7DB300"/>
<path d="M640 40H644V44H640V40Z" fill="#7DB300"/>
<path d="M660 40H664V44H660V40Z" fill="#7DB300"/>
<path d="M680 40H684V44H680V40Z" fill="#7DB300"/>
<path d="M700 40H704V44H700V40Z" fill="#7DB300"/>
<path d="M720 40H724V44H720V40Z" fill="#7DB300"/>
<path d="M740 40H744V44H740V40Z" fill="#7DB300"/>
<path d="M760 40H764V44H760V40Z" fill="#7DB300"/>
<path d="M780 40H784V44H780V40Z" fill="#7DB300"/>
<path d="M800 40H804V44H800V40Z" fill="#7DB300"/>
<path d="M400 60H404V64H400V60Z" fill="#7DB300"/>
<path d="M420 60H424V64H420V60Z" fill="#7DB300"/>
<path d="M440 60H444V64H440V60Z" fill="#7DB300"/>
<path d="M460 60H464V64H460V60Z" fill="#7DB300"/>
<path d="M480 60H484V64H480V60Z" fill="#7DB300"/>
<path d="M500 60H504V64H500V60Z" fill="#7DB300"/>
<path d="M520 60H524V64H520V60Z" fill="#7DB300"/>
<path d="M540 60H544V64H540V60Z" fill="#7DB300"/>
<path d="M560 60H564V64H560V60Z" fill="#7DB300"/>
<path d="M580 60H584V64H580V60Z" fill="#7DB300"/>
<path d="M600 60H604V64H600V60Z" fill="#7DB300"/>
<path d="M620 60H624V64H620V60Z" fill="#7DB300"/>
<path d="M640 60H644V64H640V60Z" fill="#7DB300"/>
<path d="M660 60H664V64H660V60Z" fill="#7DB300"/>
<path d="M680 60H684V64H680V60Z" fill="#7DB300"/>
<path d="M700 60H704V64H700V60Z" fill="#7DB300"/>
<path d="M720 60H724V64H720V60Z" fill="#7DB300"/>
<path d="M740 60H744V64H740V60Z" fill="#7DB300"/>
<path d="M760 60H764V64H760V60Z" fill="#7DB300"/>
<path d="M780 60H784V64H780V60Z" fill="#7DB300"/>
<path d="M800 60H804V64H800V60Z" fill="#7DB300"/>
<path d="M400 80H404V84H400V80Z" fill="#7DB300"/>
<path d="M420 80H424V84H420V80Z" fill="#7DB300"/>
<path d="M440 80H444V84H440V80Z" fill="#7DB300"/>
<path d="M460 80H464V84H460V80Z" fill="#7DB300"/>
<path d="M480 80H484V84H480V80Z" fill="#7DB300"/>
<path d="M500 80H504V84H500V80Z" fill="#7DB300"/>
<path d="M520 80H524V84H520V80Z" fill="#7DB300"/>
<path d="M540 80H544V84H540V80Z" fill="#7DB300"/>
<path d="M560 80H564V84H560V80Z" fill="#7DB300"/>
<path d="M580 80H584V84H580V80Z" fill="#7DB300"/>
<path d="M600 80H604V84H600V80Z" fill="#7DB300"/>
<path d="M620 80H624V84H620V80Z" fill="#7DB300"/>
<path d="M640 80H644V84H640V80Z" fill="#7DB300"/>
<path d="M660 80H664V84H660V80Z" fill="#7DB300"/>
<path d="M680 80H684V84H680V80Z" fill="#7DB300"/>
<path d="M700 80H704V84H700V80Z" fill="#7DB300"/>
<path d="M720 80H724V84H720V80Z" fill="#7DB300"/>
<path d="M740 80H744V84H740V80Z" fill="#7DB300"/>
<path d="M760 80H764V84H760V80Z" fill="#7DB300"/>
<path d="M780 80H784V84H780V80Z" fill="#7DB300"/>
<path d="M800 80H804V84H800V80Z" fill="#7DB300"/>
<path d="M400 100H404V104H400V100Z" fill="#7DB300"/>
<path d="M420 100H424V104H420V100Z" fill="#7DB300"/>
<path d="M440 100H444V104H440V100Z" fill="#7DB300"/>
<path d="M460 100H464V104H460V100Z" fill="#7DB300"/>
<path d="M480 100H484V104H480V100Z" fill="#7DB300"/>
<path d="M500 100H504V104H500V100Z" fill="#7DB300"/>
<path d="M520 100H524V104H520V100Z" fill="#7DB300"/>
<path d="M540 100H544V104H540V100Z" fill="#7DB300"/>
<path d="M560 100H564V104H560V100Z" fill="#7DB300"/>
<path d="M580 100H584V104H580V100Z" fill="#7DB300"/>
<path d="M600 100H604V104H600V100Z" fill="#7DB300"/>
<path d="M620 100H624V104H620V100Z" fill="#7DB300"/>
<path d="M640 100H644V104H640V100Z" fill="#7DB300"/>
<path d="M660 100H664V104H660V100Z" fill="#7DB300"/>
<path d="M680 100H684V104H680V100Z" fill="#7DB300"/>
<path d="M700 100H704V104H700V100Z" fill="#7DB300"/>
<path d="M720 100H724V104H720V100Z" fill="#7DB300"/>
<path d="M740 100H744V104H740V100Z" fill="#7DB300"/>
<path d="M760 100H764V104H760V100Z" fill="#7DB300"/>
<path d="M780 100H784V104H780V100Z" fill="#7DB300"/>
<path d="M800 100H804V104H800V100Z" fill="#7DB300"/>
<path d="M400 120H404V124H400V120Z" fill="#7DB300"/>
<path d="M420 120H424V124H420V120Z" fill="#7DB300"/>
<path d="M440 120H444V124H440V120Z" fill="#7DB300"/>
<path d="M460 120H464V124H460V120Z" fill="#7DB300"/>
<path d="M480 120H484V124H480V120Z" fill="#7DB300"/>
<path d="M500 120H504V124H500V120Z" fill="#7DB300"/>
<path d="M520 120H524V124H520V120Z" fill="#7DB300"/>
<path d="M540 120H544V124H540V120Z" fill="#7DB300"/>
<path d="M560 120H564V124H560V120Z" fill="#7DB300"/>
<path d="M580 120H584V124H580V120Z" fill="#7DB300"/>
<path d="M600 120H604V124H600V120Z" fill="#7DB300"/>
<path d="M620 120H624V124H620V120Z" fill="#7DB300"/>
<path d="M640 120H644V124H640V120Z" fill="#7DB300"/>
<path d="M660 120H664V124H660V120Z" fill="#7DB300"/>
<path d="M680 120H684V124H680V120Z" fill="#7DB300"/>
<path d="M700 120H704V124H700V120Z" fill="#7DB300"/>
<path d="M720 120H724V124H720V120Z" fill="#7DB300"/>
<path d="M740 120H744V124H740V120Z" fill="#7DB300"/>
<path d="M760 120H764V124H760V120Z" fill="#7DB300"/>
<path d="M780 120H784V124H780V120Z" fill="#7DB300"/>
<path d="M800 120H804V124H800V120Z" fill="#7DB300"/>
<path d="M400 140H404V144H400V140Z" fill="#7DB300"/>
<path d="M420 140H424V144H420V140Z" fill="#7DB300"/>
<path d="M440 140H444V144H440V140Z" fill="#7DB300"/>
<path d="M460 140H464V144H460V140Z" fill="#7DB300"/>
<path d="M480 140H484V144H480V140Z" fill="#7DB300"/>
<path d="M500 140H504V144H500V140Z" fill="#7DB300"/>
<path d="M520 140H524V144H520V140Z" fill="#7DB300"/>
<path d="M540 140H544V144H540V140Z" fill="#7DB300"/>
<path d="M560 140H564V144H560V140Z" fill="#7DB300"/>
<path d="M580 140H584V144H580V140Z" fill="#7DB300"/>
<path d="M600 140H604V144H600V140Z" fill="#7DB300"/>
<path d="M620 140H624V144H620V140Z" fill="#7DB300"/>
<path d="M640 140H644V144H640V140Z" fill="#7DB300"/>
<path d="M660 140H664V144H660V140Z" fill="#7DB300"/>
<path d="M680 140H684V144H680V140Z" fill="#7DB300"/>
<path d="M700 140H704V144H700V140Z" fill="#7DB300"/>
<path d="M720 140H724V144H720V140Z" fill="#7DB300"/>
<path d="M740 140H744V144H740V140Z" fill="#7DB300"/>
<path d="M760 140H764V144H760V140Z" fill="#7DB300"/>
<path d="M780 140H784V144H780V140Z" fill="#7DB300"/>
<path d="M800 140H804V144H800V140Z" fill="#7DB300"/>
<path d="M400 160H404V164H400V160Z" fill="#7DB300"/>
<path d="M420 160H424V164H420V160Z" fill="#7DB300"/>
<path d="M440 160H444V164H440V160Z" fill="#7DB300"/>
<path d="M460 160H464V164H460V160Z" fill="#7DB300"/>
<path d="M480 160H484V164H480V160Z" fill="#7DB300"/>
<path d="M500 160H504V164H500V160Z" fill="#7DB300"/>
<path d="M520 160H524V164H520V160Z" fill="#7DB300"/>
<path d="M540 160H544V164H540V160Z" fill="#7DB300"/>
<path d="M560 160H564V164H560V160Z" fill="#7DB300"/>
<path d="M580 160H584V164H580V160Z" fill="#7DB300"/>
<path d="M600 160H604V164H600V160Z" fill="#7DB300"/>
<path d="M620 160H624V164H620V160Z" fill="#7DB300"/>
<path d="M640 160H644V164H640V160Z" fill="#7DB300"/>
<path d="M660 160H664V164H660V160Z" fill="#7DB300"/>
<path d="M680 160H684V164H680V160Z" fill="#7DB300"/>
<path d="M700 160H704V164H700V160Z" fill="#7DB300"/>
<path d="M720 160H724V164H720V160Z" fill="#7DB300"/>
<path d="M740 160H744V164H740V160Z" fill="#7DB300"/>
<path d="M760 160H764V164H760V160Z" fill="#7DB300"/>
<path d="M780 160H784V164H780V160Z" fill="#7DB300"/>
<path d="M800 160H804V164H800V160Z" fill="#7DB300"/>
<path d="M400 180H404V184H400V180Z" fill="#7DB300"/>
<path d="M420 180H424V184H420V180Z" fill="#7DB300"/>
<path d="M440 180H444V184H440V180Z" fill="#7DB300"/>
<path d="M460 180H464V184H460V180Z" fill="#7DB300"/>
<path d="M480 180H484V184H480V180Z" fill="#7DB300"/>
<path d="M500 180H504V184H500V180Z" fill="#7DB300"/>
<path d="M520 180H524V184H520V180Z" fill="#7DB300"/>
<path d="M540 180H544V184H540V180Z" fill="#7DB300"/>
<path d="M560 180H564V184H560V180Z" fill="#7DB300"/>
<path d="M580 180H584V184H580V180Z" fill="#7DB300"/>
<path d="M600 180H604V184H600V180Z" fill="#7DB300"/>
<path d="M620 180H624V184H620V180Z" fill="#7DB300"/>
<path d="M640 180H644V184H640V180Z" fill="#7DB300"/>
<path d="M660 180H664V184H660V180Z" fill="#7DB300"/>
<path d="M680 180H684V184H680V180Z" fill="#7DB300"/>
<path d="M700 180H704V184H700V180Z" fill="#7DB300"/>
<path d="M720 180H724V184H720V180Z" fill="#7DB300"/>
<path d="M740 180H744V184H740V180Z" fill="#7DB300"/>
<path d="M760 180H764V184H760V180Z" fill="#7DB300"/>
<path d="M780 180H784V184H780V180Z" fill="#7DB300"/>
<path d="M800 180H804V184H800V180Z" fill="#7DB300"/>
<path d="M400 200H404V204H400V200Z" fill="#7DB300"/>
<path d="M420 200H424V204H420V200Z" fill="#7DB300"/>
<path d="M440 200H444V204H440V200Z" fill="#7DB300"/>
<path d="M460 200H464V204H460V200Z" fill="#7DB300"/>
<path d="M480 200H484V204H480V200Z" fill="#7DB300"/>
<path d="M500 200H504V204H500V200Z" fill="#7DB300"/>
<path d="M520 200H524V204H520V200Z" fill="#7DB300"/>
<path d="M540 200H544V204H540V200Z" fill="#7DB300"/>
<path d="M560 200H564V204H560V200Z" fill="#7DB300"/>
<path d="M580 200H584V204H580V200Z" fill="#7DB300"/>
<path d="M600 200H604V204H600V200Z" fill="#7DB300"/>
<path d="M620 200H624V204H620V200Z" fill="#7DB300"/>
<path d="M640 200H644V204H640V200Z" fill="#7DB300"/>
<path d="M660 200H664V204H660V200Z" fill="#7DB300"/>
<path d="M680 200H684V204H680V200Z" fill="#7DB300"/>
<path d="M700 200H704V204H700V200Z" fill="#7DB300"/>
<path d="M720 200H724V204H720V200Z" fill="#7DB300"/>
<path d="M740 200H744V204H740V200Z" fill="#7DB300"/>
<path d="M760 200H764V204H760V200Z" fill="#7DB300"/>
<path d="M780 200H784V204H780V200Z" fill="#7DB300"/>
<path d="M800 200H804V204H800V200Z" fill="#7DB300"/>
<path d="M400 220H404V224H400V220Z" fill="#7DB300"/>
<path d="M420 220H424V224H420V220Z" fill="#7DB300"/>
<path d="M440 220H444V224H440V220Z" fill="#7DB300"/>
<path d="M460 220H464V224H460V220Z" fill="#7DB300"/>
<path d="M480 220H484V224H480V220Z" fill="#7DB300"/>
<path d="M500 220H504V224H500V220Z" fill="#7DB300"/>
<path d="M520 220H524V224H520V220Z" fill="#7DB300"/>
<path d="M540 220H544V224H540V220Z" fill="#7DB300"/>
<path d="M560 220H564V224H560V220Z" fill="#7DB300"/>
<path d="M580 220H584V224H580V220Z" fill="#7DB300"/>
<path d="M600 220H604V224H600V220Z" fill="#7DB300"/>
<path d="M620 220H624V224H620V220Z" fill="#7DB300"/>
<path d="M640 220H644V224H640V220Z" fill="#7DB300"/>
<path d="M660 220H664V224H660V220Z" fill="#7DB300"/>
<path d="M680 220H684V224H680V220Z" fill="#7DB300"/>
<path d="M700 220H704V224H700V220Z" fill="#7DB300"/>
<path d="M720 220H724V224H720V220Z" fill="#7DB300"/>
<path d="M740 220H744V224H740V220Z" fill="#7DB300"/>
<path d="M760 220H764V224H760V220Z" fill="#7DB300"/>
<path d="M780 220H784V224H780V220Z" fill="#7DB300"/>
<path d="M800 220H804V224H800V220Z" fill="#7DB300"/>
<path d="M400 240H404V244H400V240Z" fill="#7DB300"/>
<path d="M420 240H424V244H420V240Z" fill="#7DB300"/>
<path d="M440 240H444V244H440V240Z" fill="#7DB300"/>
<path d="M460 240H464V244H460V240Z" fill="#7DB300"/>
<path d="M480 240H484V244H480V240Z" fill="#7DB300"/>
<path d="M500 240H504V244H500V240Z" fill="#7DB300"/>
<path d="M520 240H524V244H520V240Z" fill="#7DB300"/>
<path d="M540 240H544V244H540V240Z" fill="#7DB300"/>
<path d="M560 240H564V244H560V240Z" fill="#7DB300"/>
<path d="M580 240H584V244H580V240Z" fill="#7DB300"/>
<path d="M600 240H604V244H600V240Z" fill="#7DB300"/>
<path d="M620 240H624V244H620V240Z" fill="#7DB300"/>
<path d="M640 240H644V244H640V240Z" fill="#7DB300"/>
<path d="M660 240H664V244H660V240Z" fill="#7DB300"/>
<path d="M680 240H684V244H680V240Z" fill="#7DB300"/>
<path d="M700 240H704V244H700V240Z" fill="#7DB300"/>
<path d="M720 240H724V244H720V240Z" fill="#7DB300"/>
<path d="M740 240H744V244H740V240Z" fill="#7DB300"/>
<path d="M760 240H764V244H760V240Z" fill="#7DB300"/>
<path d="M780 240H784V244H780V240Z" fill="#7DB300"/>
<path d="M800 240H804V244H800V240Z" fill="#7DB300"/>
<path d="M400 260H404V264H400V260Z" fill="#7DB300"/>
<path d="M420 260H424V264H420V260Z" fill="#7DB300"/>
<path d="M440 260H444V264H440V260Z" fill="#7DB300"/>
<path d="M460 260H464V264H460V260Z" fill="#7DB300"/>
<path d="M480 260H484V264H480V260Z" fill="#7DB300"/>
<path d="M500 260H504V264H500V260Z" fill="#7DB300"/>
<path d="M520 260H524V264H520V260Z" fill="#7DB300"/>
<path d="M540 260H544V264H540V260Z" fill="#7DB300"/>
<path d="M560 260H564V264H560V260Z" fill="#7DB300"/>
<path d="M580 260H584V264H580V260Z" fill="#7DB300"/>
<path d="M600 260H604V264H600V260Z" fill="#7DB300"/>
<path d="M620 260H624V264H620V260Z" fill="#7DB300"/>
<path d="M640 260H644V264H640V260Z" fill="#7DB300"/>
<path d="M660 260H664V264H660V260Z" fill="#7DB300"/>
<path d="M680 260H684V264H680V260Z" fill="#7DB300"/>
<path d="M700 260H704V264H700V260Z" fill="#7DB300"/>
<path d="M720 260H724V264H720V260Z" fill="#7DB300"/>
<path d="M740 260H744V264H740V260Z" fill="#7DB300"/>
<path d="M760 260H764V264H760V260Z" fill="#7DB300"/>
<path d="M780 260H784V264H780V260Z" fill="#7DB300"/>
<path d="M800 260H804V264H800V260Z" fill="#7DB300"/>
<path d="M400 280H404V284H400V280Z" fill="#7DB300"/>
<path d="M420 280H424V284H420V280Z" fill="#7DB300"/>
<path d="M440 280H444V284H440V280Z" fill="#7DB300"/>
<path d="M460 280H464V284H460V280Z" fill="#7DB300"/>
<path d="M480 280H484V284H480V280Z" fill="#7DB300"/>
<path d="M500 280H504V284H500V280Z" fill="#7DB300"/>
<path d="M520 280H524V284H520V280Z" fill="#7DB300"/>
<path d="M540 280H544V284H540V280Z" fill="#7DB300"/>
<path d="M560 280H564V284H560V280Z" fill="#7DB300"/>
<path d="M580 280H584V284H580V280Z" fill="#7DB300"/>
<path d="M600 280H604V284H600V280Z" fill="#7DB300"/>
<path d="M620 280H624V284H620V280Z" fill="#7DB300"/>
<path d="M640 280H644V284H640V280Z" fill="#7DB300"/>
<path d="M660 280H664V284H660V280Z" fill="#7DB300"/>
<path d="M680 280H684V284H680V280Z" fill="#7DB300"/>
<path d="M700 280H704V284H700V280Z" fill="#7DB300"/>
<path d="M720 280H724V284H720V280Z" fill="#7DB300"/>
<path d="M740 280H744V284H740V280Z" fill="#7DB300"/>
<path d="M760 280H764V284H760V280Z" fill="#7DB300"/>
<path d="M780 280H784V284H780V280Z" fill="#7DB300"/>
<path d="M800 280H804V284H800V280Z" fill="#7DB300"/>
<path d="M400 300H404V304H400V300Z" fill="#7DB300"/>
<path d="M420 300H424V304H420V300Z" fill="#7DB300"/>
<path d="M440 300H444V304H440V300Z" fill="#7DB300"/>
<path d="M460 300H464V304H460V300Z" fill="#7DB300"/>
<path d="M480 300H484V304H480V300Z" fill="#7DB300"/>
<path d="M500 300H504V304H500V300Z" fill="#7DB300"/>
<path d="M520 300H524V304H520V300Z" fill="#7DB300"/>
<path d="M540 300H544V304H540V300Z" fill="#7DB300"/>
<path d="M560 300H564V304H560V300Z" fill="#7DB300"/>
<path d="M580 300H584V304H580V300Z" fill="#7DB300"/>
<path d="M600 300H604V304H600V300Z" fill="#7DB300"/>
<path d="M620 300H624V304H620V300Z" fill="#7DB300"/>
<path d="M640 300H644V304H640V300Z" fill="#7DB300"/>
<path d="M660 300H664V304H660V300Z" fill="#7DB300"/>
<path d="M680 300H684V304H680V300Z" fill="#7DB300"/>
<path d="M700 300H704V304H700V300Z" fill="#7DB300"/>
<path d="M720 300H724V304H720V300Z" fill="#7DB300"/>
<path d="M740 300H744V304H740V300Z" fill="#7DB300"/>
<path d="M760 300H764V304H760V300Z" fill="#7DB300"/>
<path d="M780 300H784V304H780V300Z" fill="#7DB300"/>
<path d="M800 300H804V304H800V300Z" fill="#7DB300"/>
<path d="M400 320H404V324H400V320Z" fill="#7DB300"/>
<path d="M420 320H424V324H420V320Z" fill="#7DB300"/>
<path d="M440 320H444V324H440V320Z" fill="#7DB300"/>
<path d="M460 320H464V324H460V320Z" fill="#7DB300"/>
<path d="M480 320H484V324H480V320Z" fill="#7DB300"/>
<path d="M500 320H504V324H500V320Z" fill="#7DB300"/>
<path d="M520 320H524V324H520V320Z" fill="#7DB300"/>
<path d="M540 320H544V324H540V320Z" fill="#7DB300"/>
<path d="M560 320H564V324H560V320Z" fill="#7DB300"/>
<path d="M580 320H584V324H580V320Z" fill="#7DB300"/>
<path d="M600 320H604V324H600V320Z" fill="#7DB300"/>
<path d="M620 320H624V324H620V320Z" fill="#7DB300"/>
<path d="M640 320H644V324H640V320Z" fill="#7DB300"/>
<path d="M660 320H664V324H660V320Z" fill="#7DB300"/>
<path d="M680 320H684V324H680V320Z" fill="#7DB300"/>
<path d="M700 320H704V324H700V320Z" fill="#7DB300"/>
<path d="M720 320H724V324H720V320Z" fill="#7DB300"/>
<path d="M740 320H744V324H740V320Z" fill="#7DB300"/>
<path d="M760 320H764V324H760V320Z" fill="#7DB300"/>
<path d="M780 320H784V324H780V320Z" fill="#7DB300"/>
<path d="M800 320H804V324H800V320Z" fill="#7DB300"/>
<path d="M400 340H404V344H400V340Z" fill="#7DB300"/>
<path d="M420 340H424V344H420V340Z" fill="#7DB300"/>
<path d="M440 340H444V344H440V340Z" fill="#7DB300"/>
<path d="M460 340H464V344H460V340Z" fill="#7DB300"/>
<path d="M480 340H484V344H480V340Z" fill="#7DB300"/>
<path d="M500 340H504V344H500V340Z" fill="#7DB300"/>
<path d="M520 340H524V344H520V340Z" fill="#7DB300"/>
<path d="M540 340H544V344H540V340Z" fill="#7DB300"/>
<path d="M560 340H564V344H560V340Z" fill="#7DB300"/>
<path d="M580 340H584V344H580V340Z" fill="#7DB300"/>
<path d="M600 340H604V344H600V340Z" fill="#7DB300"/>
<path d="M620 340H624V344H620V340Z" fill="#7DB300"/>
<path d="M640 340H644V344H640V340Z" fill="#7DB300"/>
<path d="M660 340H664V344H660V340Z" fill="#7DB300"/>
<path d="M680 340H684V344H680V340Z" fill="#7DB300"/>
<path d="M700 340H704V344H700V340Z" fill="#7DB300"/>
<path d="M720 340H724V344H720V340Z" fill="#7DB300"/>
<path d="M740 340H744V344H740V340Z" fill="#7DB300"/>
<path d="M760 340H764V344H760V340Z" fill="#7DB300"/>
<path d="M780 340H784V344H780V340Z" fill="#7DB300"/>
<path d="M800 340H804V344H800V340Z" fill="#7DB300"/>
<path d="M400 360H404V364H400V360Z" fill="#7DB300"/>
<path d="M420 360H424V364H420V360Z" fill="#7DB300"/>
<path d="M440 360H444V364H440V360Z" fill="#7DB300"/>
<path d="M460 360H464V364H460V360Z" fill="#7DB300"/>
<path d="M480 360H484V364H480V360Z" fill="#7DB300"/>
<path d="M500 360H504V364H500V360Z" fill="#7DB300"/>
<path d="M520 360H524V364H520V360Z" fill="#7DB300"/>
<path d="M540 360H544V364H540V360Z" fill="#7DB300"/>
<path d="M560 360H564V364H560V360Z" fill="#7DB300"/>
<path d="M580 360H584V364H580V360Z" fill="#7DB300"/>
<path d="M600 360H604V364H600V360Z" fill="#7DB300"/>
<path d="M620 360H624V364H620V360Z" fill="#7DB300"/>
<path d="M640 360H644V364H640V360Z" fill="#7DB300"/>
<path d="M660 360H664V364H660V360Z" fill="#7DB300"/>
<path d="M680 360H684V364H680V360Z" fill="#7DB300"/>
<path d="M700 360H704V364H700V360Z" fill="#7DB300"/>
<path d="M720 360H724V364H720V360Z" fill="#7DB300"/>
<path d="M740 360H744V364H740V360Z" fill="#7DB300"/>
<path d="M760 360H764V364H760V360Z" fill="#7DB300"/>
<path d="M780 360H784V364H780V360Z" fill="#7DB300"/>
<path d="M800 360H804V364H800V360Z" fill="#7DB300"/>
<path d="M400 380H404V384H400V380Z" fill="#7DB300"/>
<path d="M420 380H424V384H420V380Z" fill="#7DB300"/>
<path d="M440 380H444V384H440V380Z" fill="#7DB300"/>
<path d="M460 380H464V384H460V380Z" fill="#7DB300"/>
<path d="M480 380H484V384H480V380Z" fill="#7DB300"/>
<path d="M500 380H504V384H500V380Z" fill="#7DB300"/>
<path d="M520 380H524V384H520V380Z" fill="#7DB300"/>
<path d="M540 380H544V384H540V380Z" fill="#7DB300"/>
<path d="M560 380H564V384H560V380Z" fill="#7DB300"/>
<path d="M580 380H584V384H580V380Z" fill="#7DB300"/>
<path d="M600 380H604V384H600V380Z" fill="#7DB300"/>
<path d="M620 380H624V384H620V380Z" fill="#7DB300"/>
<path d="M640 380H644V384H640V380Z" fill="#7DB300"/>
<path d="M660 380H664V384H660V380Z" fill="#7DB300"/>
<path d="M680 380H684V384H680V380Z" fill="#7DB300"/>
<path d="M700 380H704V384H700V380Z" fill="#7DB300"/>
<path d="M720 380H724V384H720V380Z" fill="#7DB300"/>
<path d="M740 380H744V384H740V380Z" fill="#7DB300"/>
<path d="M760 380H764V384H760V380Z" fill="#7DB300"/>
<path d="M780 380H784V384H780V380Z" fill="#7DB300"/>
<path d="M800 380H804V384H800V380Z" fill="#7DB300"/>
<path d="M400 400H404V404H400V400Z" fill="#7DB300"/>
<path d="M420 400H424V404H420V400Z" fill="#7DB300"/>
<path d="M440 400H444V404H440V400Z" fill="#7DB300"/>
<path d="M460 400H464V404H460V400Z" fill="#7DB300"/>
<path d="M480 400H484V404H480V400Z" fill="#7DB300"/>
<path d="M500 400H504V404H500V400Z" fill="#7DB300"/>
<path d="M520 400H524V404H520V400Z" fill="#7DB300"/>
<path d="M540 400H544V404H540V400Z" fill="#7DB300"/>
<path d="M560 400H564V404H560V400Z" fill="#7DB300"/>
<path d="M580 400H584V404H580V400Z" fill="#7DB300"/>
<path d="M600 400H604V404H600V400Z" fill="#7DB300"/>
<path d="M620 400H624V404H620V400Z" fill="#7DB300"/>
<path d="M640 400H644V404H640V400Z" fill="#7DB300"/>
<path d="M660 400H664V404H660V400Z" fill="#7DB300"/>
<path d="M680 400H684V404H680V400Z" fill="#7DB300"/>
<path d="M700 400H704V404H700V400Z" fill="#7DB300"/>
<path d="M720 400H724V404H720V400Z" fill="#7DB300"/>
<path d="M740 400H744V404H740V400Z" fill="#7DB300"/>
<path d="M760 400H764V404H760V400Z" fill="#7DB300"/>
<path d="M780 400H784V404H780V400Z" fill="#7DB300"/>
<path d="M800 400H804V404H800V400Z" fill="#7DB300"/>
</g>
<defs>
<clipPath id="clip0_9629_101132">
<rect width="400" height="400" fill="white" transform="translate(0 200)"/>
</clipPath>
<clipPath id="clip1_9629_101132">
<rect width="400" height="400" fill="white" transform="translate(400)"/>
</clipPath>
</defs>
</svg>
