<?xml version="1.0" encoding="utf-8"?>
<!-- Generator: Adobe Illustrator 27.8.1, SVG Export Plug-In . SVG Version: 6.00 Build 0)  -->
<svg version="1.0" id="Layer_1" xmlns="http://www.w3.org/2000/svg" xmlns:xlink="http://www.w3.org/1999/xlink" x="0px" y="0px"
	 viewBox="0 0 162 181" style="enable-background:new 0 0 162 181;" xml:space="preserve">
<style type="text/css">
	.st0{fill:#2DB460;}
</style>
<path class="st0" d="M156.8,178.4c0-1.4,1.1-2.5,2.5-2.5s2.5,1.1,2.5,2.5s-1.1,2.5-2.5,2.5C158,180.9,156.8,179.8,156.8,178.4z"/>
<path class="st0" d="M117.7,178.4c0-1.4,1.1-2.5,2.5-2.5s2.5,1.1,2.5,2.5s-1.1,2.5-2.5,2.5S117.7,179.8,117.7,178.4z"/>
<path class="st0" d="M78.5,178.4c0-1.4,1.1-2.5,2.5-2.5s2.5,1.1,2.5,2.5s-1.1,2.5-2.5,2.5S78.5,179.8,78.5,178.4z"/>
<path class="st0" d="M39.3,178.4c0-1.4,1.1-2.5,2.5-2.5s2.5,1.1,2.5,2.5s-1.1,2.5-2.5,2.5C40.4,180.9,39.3,179.8,39.3,178.4z"/>
<path class="st0" d="M0.1,178.4c0-1.4,1.1-2.5,2.5-2.5s2.5,1.1,2.5,2.5s-1.1,2.5-2.5,2.5S0.1,179.8,0.1,178.4z"/>
<path class="st0" d="M156.8,143.4c0-1.4,1.1-2.5,2.5-2.5s2.5,1.1,2.5,2.5s-1.1,2.5-2.5,2.5C158,145.9,156.8,144.8,156.8,143.4z"/>
<path class="st0" d="M117.7,143.4c0-1.4,1.1-2.5,2.5-2.5s2.5,1.1,2.5,2.5s-1.1,2.5-2.5,2.5S117.7,144.8,117.7,143.4z"/>
<path class="st0" d="M78.5,143.4c0-1.4,1.1-2.5,2.5-2.5s2.5,1.1,2.5,2.5s-1.1,2.5-2.5,2.5S78.5,144.8,78.5,143.4z"/>
<path class="st0" d="M39.3,143.4c0-1.4,1.1-2.5,2.5-2.5s2.5,1.1,2.5,2.5s-1.1,2.5-2.5,2.5C40.4,145.9,39.3,144.8,39.3,143.4z"/>
<path class="st0" d="M0.1,143.4c0-1.4,1.1-2.5,2.5-2.5s2.5,1.1,2.5,2.5s-1.1,2.5-2.5,2.5S0.1,144.8,0.1,143.4z"/>
<path class="st0" d="M156.8,108.4c0-1.4,1.1-2.5,2.5-2.5s2.5,1.1,2.5,2.5s-1.1,2.5-2.5,2.5C158,110.9,156.8,109.8,156.8,108.4z"/>
<path class="st0" d="M120.2,110.9c1.4,0,2.5-1.1,2.5-2.5s-1.1-2.5-2.5-2.5s-2.5,1.1-2.5,2.5S118.8,110.9,120.2,110.9z"/>
<path class="st0" d="M81,110.9c1.4,0,2.5-1.1,2.5-2.5s-1.1-2.5-2.5-2.5s-2.5,1.1-2.5,2.5S79.6,110.9,81,110.9z"/>
<path class="st0" d="M39.3,108.4c0-1.4,1.1-2.5,2.5-2.5s2.5,1.1,2.5,2.5s-1.1,2.5-2.5,2.5C40.4,110.9,39.3,109.8,39.3,108.4z"/>
<path class="st0" d="M0.1,108.4c0-1.4,1.1-2.5,2.5-2.5s2.5,1.1,2.5,2.5s-1.1,2.5-2.5,2.5S0.1,109.8,0.1,108.4z"/>
<path class="st0" d="M156.8,73.4c0-1.4,1.1-2.5,2.5-2.5s2.5,1.1,2.5,2.5s-1.1,2.5-2.5,2.5C158,75.9,156.8,74.8,156.8,73.4z"/>
<path class="st0" d="M120.2,75.9c1.4,0,2.5-1.1,2.5-2.5s-1.1-2.5-2.5-2.5s-2.5,1.1-2.5,2.5S118.8,75.9,120.2,75.9z"/>
<path class="st0" d="M81,75.9c1.4,0,2.5-1.1,2.5-2.5s-1.1-2.5-2.5-2.5s-2.5,1.1-2.5,2.5S79.6,75.9,81,75.9z"/>
<path class="st0" d="M39.3,73.4c0-1.4,1.1-2.5,2.5-2.5s2.5,1.1,2.5,2.5s-1.1,2.5-2.5,2.5C40.4,75.9,39.3,74.8,39.3,73.4z"/>
<path class="st0" d="M0.1,73.4c0-1.4,1.1-2.5,2.5-2.5s2.5,1.1,2.5,2.5S4,75.9,2.6,75.9S0.1,74.8,0.1,73.4z"/>
<path class="st0" d="M156.8,38.4c0-1.4,1.1-2.5,2.5-2.5s2.5,1.1,2.5,2.5s-1.1,2.5-2.5,2.5C158,40.9,156.8,39.8,156.8,38.4z"/>
<path class="st0" d="M120.2,40.9c1.4,0,2.5-1.1,2.5-2.5s-1.1-2.5-2.5-2.5s-2.5,1.1-2.5,2.5C117.7,39.8,118.8,40.9,120.2,40.9z"/>
<path class="st0" d="M81,40.9c1.4,0,2.5-1.1,2.5-2.5s-1.1-2.5-2.5-2.5s-2.5,1.1-2.5,2.5C78.5,39.8,79.6,40.9,81,40.9z"/>
<path class="st0" d="M39.3,38.4c0-1.4,1.1-2.5,2.5-2.5s2.5,1.1,2.5,2.5s-1.1,2.5-2.5,2.5C40.4,40.9,39.3,39.8,39.3,38.4z"/>
<path class="st0" d="M0.1,38.4c0-1.4,1.1-2.5,2.5-2.5s2.5,1.1,2.5,2.5S4,40.9,2.6,40.9S0.1,39.8,0.1,38.4z"/>
<path class="st0" d="M156.8,3.4c0-1.4,1.1-2.5,2.5-2.5s2.5,1.1,2.5,2.5s-1.1,2.5-2.5,2.5C158,5.9,156.8,4.7,156.8,3.4z"/>
<path class="st0" d="M117.7,3.4c0-1.4,1.1-2.5,2.5-2.5s2.5,1.1,2.5,2.5s-1.1,2.5-2.5,2.5S117.7,4.7,117.7,3.4z"/>
<path class="st0" d="M78.5,3.4c0-1.4,1.1-2.5,2.5-2.5s2.5,1.1,2.5,2.5S82.4,5.9,81,5.9S78.5,4.7,78.5,3.4z"/>
<path class="st0" d="M39.3,3.4c0-1.4,1.1-2.5,2.5-2.5s2.5,1.1,2.5,2.5s-1.1,2.5-2.5,2.5C40.4,5.9,39.3,4.7,39.3,3.4z"/>
<path class="st0" d="M0.1,3.4c0-1.4,1.1-2.5,2.5-2.5S5.1,2,5.1,3.4S4,5.9,2.6,5.9S0.1,4.7,0.1,3.4z"/>
</svg>
