<?xml version="1.0" encoding="utf-8"?>
<!-- Generator: Adobe Illustrator 27.8.1, SVG Export Plug-In . SVG Version: 6.00 Build 0)  -->
<svg version="1.1" id="Layer_1" xmlns="http://www.w3.org/2000/svg" xmlns:xlink="http://www.w3.org/1999/xlink" x="0px" y="0px"
	 viewBox="0 0 70 45" style="enable-background:new 0 0 70 45;" xml:space="preserve">
<style type="text/css">
	.st0{fill-rule:evenodd;clip-rule:evenodd;fill:#28B35F;}
	.st1{fill:#28B35F;}
	.st2{fill:#666667;}
</style>
<g>
	<g>
		<path class="st0" d="M8.6,24.2l-2.1,3.5h2.1v7.9c-3-2.8-4.2-3.8-6-5.9c-0.7-0.8-1.1-1.8-1.1-2.8V9.4c1.8,0.9,3.6,1.4,4.9,2.1
			c1.3,0.8,2.2,1.8,2.2,3.7V24.2z"/>
		<path class="st0" d="M26.6,13.6v20.3c-3-2.8-4.2-3.8-6-5.9c-0.7-0.8-1.1-1.8-1.1-2.8v-8.9h2l-2-3.4V7.7c1.8,0.9,3.6,1.4,4.9,2.1
			C25.7,10.6,26.6,11.6,26.6,13.6z"/>
		<path class="st0" d="M17.5,12.5l-2.3,3.8h2.3V44c-3.5-2.7-5.6-2.8-6.9-6.7v-9.5h2.2l-2.2-3.6V1c3.5,2.6,6.9,4,6.9,7.8V12.5z"/>
	</g>
	<g>
		<g id="Rits">
			<path class="st1" d="M37.2,16.3c0,0.3,0,0.5-0.1,0.7c-0.1,0.2-0.2,0.4-0.3,0.6c-0.1,0.2-0.3,0.4-0.5,0.5
				c-0.2,0.1-0.4,0.3-0.6,0.4l2.7,3.4h-2l-2.5-3.2h-0.8v3.2h-1.7v-8h3.5c0.3,0,0.6,0.1,0.9,0.2c0.3,0.1,0.5,0.3,0.7,0.5
				c0.2,0.2,0.4,0.5,0.5,0.8C37.1,15.7,37.2,16,37.2,16.3z M34.7,17.1c0.2,0,0.4-0.1,0.6-0.2c0.2-0.2,0.2-0.4,0.2-0.6
				c0-0.2-0.1-0.4-0.2-0.6c-0.2-0.2-0.3-0.2-0.6-0.2h-1.5v1.7H34.7z"/>
			<path class="st1" d="M40,15.6c-0.2,0-0.4-0.1-0.6-0.2c-0.2-0.2-0.2-0.4-0.2-0.6c0-0.2,0.1-0.4,0.2-0.6c0.2-0.2,0.4-0.3,0.6-0.3
				c0.2,0,0.4,0.1,0.6,0.3c0.2,0.2,0.2,0.4,0.2,0.6c0,0.2-0.1,0.4-0.2,0.6C40.4,15.5,40.2,15.6,40,15.6z M40.8,21.9h-1.6v-5.6h1.6
				V21.9z"/>
			<path class="st1" d="M44.2,20.5c0.2,0.1,0.4,0.2,0.6,0.2c0.2,0,0.4,0,0.6-0.1v1.3c-0.2,0.1-0.4,0.1-0.6,0.2
				c-0.2,0-0.4,0.1-0.6,0.1c-0.2,0-0.5,0-0.7-0.1c-0.2-0.1-0.4-0.2-0.6-0.3c-0.2-0.1-0.3-0.3-0.4-0.6c-0.1-0.2-0.2-0.5-0.2-0.9v-2.5
				h-0.8v-1.1l0.8-0.3v-1.3H44v1.3h1.5v1.4H44v2.2C44,20.2,44.1,20.4,44.2,20.5z"/>
			<path class="st1" d="M49.8,19c0.4,0.3,0.6,0.7,0.6,1.3c0,0.2-0.1,0.5-0.2,0.7c-0.1,0.2-0.3,0.4-0.5,0.6c-0.2,0.2-0.4,0.3-0.7,0.4
				c-0.3,0.1-0.6,0.1-0.9,0.1c-0.2,0-0.5,0-0.7-0.1c-0.2-0.1-0.4-0.1-0.6-0.2c-0.2-0.1-0.4-0.2-0.5-0.4c-0.1-0.1-0.2-0.3-0.3-0.5
				c0.2-0.1,0.4-0.2,0.6-0.3c0.2-0.1,0.4-0.2,0.6-0.3c0.1,0.1,0.2,0.2,0.3,0.3c0.1,0.1,0.3,0.1,0.6,0.1c0.3,0,0.4-0.1,0.6-0.2
				c0.1-0.1,0.2-0.2,0.2-0.3c0-0.1,0-0.1-0.1-0.2c-0.1-0.1-0.2-0.1-0.3-0.2c-0.2-0.1-0.3-0.1-0.4-0.1c-0.1,0-0.2,0-0.3-0.1
				c-0.4-0.1-0.7-0.2-0.9-0.4c-0.2-0.2-0.4-0.3-0.5-0.5c-0.1-0.2-0.2-0.3-0.2-0.5c0-0.2,0-0.3,0-0.4c0-0.2,0.1-0.5,0.2-0.7
				c0.1-0.2,0.3-0.4,0.4-0.6c0.2-0.2,0.4-0.3,0.6-0.4c0.2-0.1,0.5-0.1,0.8-0.1c0.2,0,0.5,0,0.7,0.1c0.2,0.1,0.4,0.2,0.6,0.3
				c0.2,0.1,0.3,0.3,0.4,0.4c0.1,0.2,0.2,0.4,0.3,0.6L49,18c0-0.1-0.1-0.2-0.3-0.3c-0.1-0.1-0.3-0.1-0.4-0.1c-0.2,0-0.3,0.1-0.4,0.2
				c-0.1,0.1-0.1,0.2-0.1,0.3c0,0.1,0,0.2,0.1,0.3c0.1,0.1,0.2,0.1,0.3,0.2c0.1,0,0.2,0,0.2,0s0.2,0,0.2,0c0.3,0.1,0.5,0.1,0.7,0.2
				C49.5,18.8,49.7,18.9,49.8,19z"/>
		</g>
		<g id="Captial">
			<path class="st2" d="M35.2,29.8c0.4,0,0.7-0.1,1.1-0.2c0.3-0.2,0.7-0.4,1.1-0.8l1.1,1.1c-0.4,0.6-1,1-1.5,1.3
				c-0.6,0.3-1.2,0.4-1.8,0.4c-0.5,0-1.1-0.1-1.5-0.3s-0.9-0.5-1.2-0.9c-0.4-0.4-0.6-0.8-0.8-1.3c-0.2-0.5-0.3-1-0.3-1.6
				c0-0.6,0.1-1.1,0.3-1.6c0.2-0.5,0.5-0.9,0.8-1.3c0.4-0.4,0.8-0.7,1.3-0.9c0.5-0.2,1-0.3,1.5-0.3c0.5,0,1,0.1,1.4,0.3
				c0.5,0.2,0.9,0.5,1.3,0.9l-1,1.2c-0.3-0.3-0.6-0.5-0.9-0.6c-0.3-0.1-0.6-0.2-0.9-0.2c-0.3,0-0.6,0.1-0.9,0.2
				c-0.3,0.1-0.5,0.3-0.7,0.5c-0.2,0.2-0.4,0.5-0.5,0.8c-0.1,0.3-0.2,0.6-0.2,1c0,0.3,0.1,0.7,0.2,1c0.1,0.3,0.3,0.6,0.5,0.8
				c0.2,0.2,0.4,0.4,0.7,0.5C34.6,29.7,34.9,29.8,35.2,29.8z"/>
			<path class="st2" d="M45.1,25.7v5.6h-1.3l-0.2-0.6c-0.2,0.3-0.5,0.5-0.8,0.6c-0.3,0.1-0.6,0.1-1,0.1c-0.4,0-0.8-0.1-1.1-0.2
				c-0.3-0.2-0.6-0.4-0.9-0.6c-0.2-0.3-0.4-0.6-0.6-0.9c-0.1-0.4-0.2-0.7-0.2-1.1s0.1-0.8,0.2-1.1c0.1-0.4,0.3-0.7,0.6-0.9
				c0.2-0.3,0.5-0.5,0.9-0.6c0.3-0.2,0.7-0.2,1.1-0.2c0.4,0,0.7,0.1,1,0.2c0.3,0.1,0.6,0.3,0.7,0.5l0.2-0.6H45.1z M43.6,28.6
				c0-0.3,0-0.5-0.1-0.7c-0.1-0.2-0.2-0.4-0.3-0.5c-0.1-0.1-0.3-0.2-0.5-0.3C42.5,27,42.3,27,42.1,27c-0.2,0-0.4,0-0.6,0.1
				c-0.2,0.1-0.3,0.2-0.5,0.3c-0.1,0.1-0.2,0.3-0.3,0.5c-0.1,0.2-0.1,0.4-0.1,0.6c0,0.2,0,0.4,0.1,0.6c0.1,0.2,0.2,0.4,0.3,0.5
				c0.1,0.1,0.3,0.3,0.5,0.3c0.2,0.1,0.4,0.1,0.6,0.1c0.4,0,0.8-0.1,1-0.4C43.4,29.5,43.6,29.1,43.6,28.6z"/>
			<path class="st2" d="M49.4,25.6c0.4,0,0.8,0.1,1.1,0.2c0.3,0.2,0.6,0.4,0.9,0.6c0.2,0.3,0.4,0.6,0.6,0.9c0.1,0.4,0.2,0.7,0.2,1.1
				s-0.1,0.8-0.2,1.1c-0.1,0.4-0.3,0.7-0.6,0.9c-0.2,0.3-0.5,0.5-0.9,0.6c-0.3,0.2-0.7,0.2-1.1,0.2c-0.3,0-0.6-0.1-0.9-0.2
				c-0.3-0.1-0.6-0.3-0.7-0.4v2.7h-1.6v-7.8h1.3l0.2,0.4c0.2-0.2,0.5-0.3,0.7-0.4C48.7,25.6,49,25.6,49.4,25.6z M49.2,30.1
				c0.2,0,0.4,0,0.6-0.1c0.2-0.1,0.3-0.2,0.5-0.3c0.1-0.1,0.2-0.3,0.3-0.5c0.1-0.2,0.1-0.4,0.1-0.6c0-0.2,0-0.4-0.1-0.6
				c-0.1-0.2-0.2-0.4-0.3-0.5c-0.1-0.1-0.3-0.3-0.5-0.3C49.6,27,49.4,27,49.2,27c-0.2,0-0.4,0-0.6,0.1c-0.2,0.1-0.3,0.1-0.5,0.3
				c-0.1,0.1-0.2,0.3-0.3,0.5c-0.1,0.2-0.1,0.4-0.1,0.7c0,0.3,0,0.5,0.1,0.7c0.1,0.2,0.2,0.4,0.3,0.5c0.1,0.1,0.3,0.2,0.5,0.3
				C48.8,30.1,49,30.1,49.2,30.1z"/>
			<path class="st2" d="M53.7,25c-0.2,0-0.4-0.1-0.6-0.2c-0.2-0.2-0.2-0.4-0.2-0.6c0-0.2,0.1-0.4,0.2-0.6c0.2-0.2,0.4-0.3,0.6-0.3
				c0.2,0,0.4,0.1,0.6,0.3c0.2,0.2,0.2,0.4,0.2,0.6c0,0.2-0.1,0.4-0.2,0.6C54.2,24.9,54,25,53.7,25z M54.5,31.4H53v-5.6h1.6V31.4z"
				/>
			<path class="st2" d="M58,30c0.2,0.1,0.4,0.2,0.6,0.2c0.2,0,0.4,0,0.6-0.1v1.3c-0.2,0.1-0.4,0.1-0.6,0.2c-0.2,0-0.4,0.1-0.6,0.1
				c-0.2,0-0.5,0-0.7-0.1c-0.2-0.1-0.4-0.2-0.6-0.3s-0.3-0.3-0.4-0.6c-0.1-0.2-0.2-0.5-0.2-0.9v-2.5h-0.8v-1.1l0.8-0.3v-1.3h1.6v1.3
				h1.5v1.4h-1.5v2.2C57.8,29.6,57.8,29.8,58,30z"/>
			<path class="st2" d="M65.9,25.7v5.6h-1.3l-0.2-0.6c-0.2,0.3-0.5,0.5-0.8,0.6c-0.3,0.1-0.6,0.1-1,0.1c-0.4,0-0.8-0.1-1.1-0.2
				c-0.3-0.2-0.6-0.4-0.9-0.6c-0.2-0.3-0.4-0.6-0.6-0.9c-0.1-0.4-0.2-0.7-0.2-1.1s0.1-0.8,0.2-1.1c0.1-0.4,0.3-0.7,0.6-0.9
				c0.2-0.3,0.5-0.5,0.9-0.6c0.3-0.2,0.7-0.2,1.1-0.2c0.4,0,0.7,0.1,1,0.2c0.3,0.1,0.6,0.3,0.7,0.5l0.2-0.6H65.9z M64.3,28.6
				c0-0.3,0-0.5-0.1-0.7c-0.1-0.2-0.2-0.4-0.3-0.5c-0.1-0.1-0.3-0.2-0.5-0.3C63.2,27,63.1,27,62.9,27c-0.2,0-0.4,0-0.6,0.1
				c-0.2,0.1-0.3,0.2-0.5,0.3c-0.1,0.1-0.2,0.3-0.3,0.5c-0.1,0.2-0.1,0.4-0.1,0.6c0,0.2,0,0.4,0.1,0.6c0.1,0.2,0.2,0.4,0.3,0.5
				c0.1,0.1,0.3,0.3,0.5,0.3c0.2,0.1,0.4,0.1,0.6,0.1c0.4,0,0.8-0.1,1-0.4C64.2,29.5,64.3,29.1,64.3,28.6z"/>
			<path class="st2" d="M66.9,23.1h1.6v8.3h-1.6V23.1z"/>
		</g>
	</g>
</g>
</svg>
