<svg width="47" height="48" fill="none" xmlns="http://www.w3.org/2000/svg"><path d="M42.105 6.5c0-.827-.66-1.5-1.469-1.5H6.366c-.81 0-1.47.673-1.47 1.5v35c0 .827.66 1.5 1.47 1.5h34.27c.81 0 1.469-.673 1.469-1.5v-35z" fill="#fff"/><path clip-rule="evenodd" d="m28.094 24.784-2.832 3.773-4.533-5.688a.982.982 0 0 0-1.542 0l-7.226 9.067c-.505.635-.046 1.564.771 1.564h21.536c.805 0 1.267-.903.788-1.54l-5.385-7.176a.986.986 0 0 0-.788-.397c-.31 0-.6.147-.789.397z" stroke="#A6CCC3"/><path clip-rule="evenodd" d="M33.292 19.5c1.352 0 2.448-1.12 2.448-2.5s-1.096-2.5-2.448-2.5c-1.352 0-2.448 1.12-2.448 2.5s1.096 2.5 2.448 2.5z" stroke="#FF9810"/><path opacity=".67" fill-rule="evenodd" clip-rule="evenodd" d="M6.365 44h34.27c1.351 0 2.449-1.122 2.449-2.5v-35c0-1.378-1.098-2.5-2.448-2.5H6.365c-1.35 0-2.448 1.122-2.448 2.5v35c.002 1.38 1.097 2.498 2.448 2.5zM4.896 6.5c0-.827.66-1.5 1.469-1.5h34.27c.81 0 1.47.673 1.47 1.5v35c0 .827-.66 1.5-1.47 1.5H6.366c-.81 0-1.469-.673-1.469-1.5v-35z" fill="#605E5C"/></svg>