<svg width="24" height="24" fill="none" xmlns="http://www.w3.org/2000/svg"><path d="M5.5 22h13c.275 0 .5-.225.5-.5V7h-3.5c-.827 0-1.5-.673-1.5-1.5V2H5.5c-.275 0-.5.225-.5.5v19c0 .275.225.5.5.5z" fill="#fff"/><path d="M18.293 6 15 2.707V5.5c0 .275.225.5.5.5h2.793z" fill="#fff"/><path opacity=".67" fill-rule="evenodd" clip-rule="evenodd" d="m19.56 5.854-4.414-4.415A1.51 1.51 0 0 0 14.086 1H5.5C4.673 1 4 1.673 4 2.5v19c0 .827.673 1.5 1.5 1.5h13c.827 0 1.5-.673 1.5-1.5V6.914c0-.4-.156-.777-.44-1.06zM15 2.707 18.293 6H15.5a.501.501 0 0 1-.5-.5V2.707zM5.5 22h13c.275 0 .5-.225.5-.5V7h-3.5c-.827 0-1.5-.673-1.5-1.5V2H5.5c-.275 0-.5.225-.5.5v19c0 .276.224.5.5.5z" fill="#605E5C"/><path d="m12.234 15.011 4.654 1.746a.173.173 0 0 1-.019.33l-2.226.556-.557 2.226a.173.173 0 0 1-.33.02l-1.745-4.655a.173.173 0 0 1 .223-.223z" fill="#0078D7"/><path d="M9.5 11a.5.5 0 0 0 0 1v-1zm5 1a.5.5 0 0 0 0-1v1zm-5.5.5a.5.5 0 0 0-1 0h1zm-1 5a.5.5 0 0 0 1 0H8zM9.5 12h5v-1h-5v1zm-1.5.5v5h1v-5H8z" fill="#C8C6C4"/><path d="M8.5 13a1.5 1.5 0 1 0 0-3 1.5 1.5 0 0 0 0 3zM7.5 17.5V17H7v.5h.5zm2 0h.5V17h-.5v.5zm0 2v.5h.5v-.5h-.5zm-2 0H7v.5h.5v-.5zm7-9V10H14v.5h.5zm2 0h.5V10h-.5v.5zm0 2v.5h.5v-.5h-.5zm-2 0H14v.5h.5v-.5zm-7 5.5h2v-1h-2v1zm1.5-.5v2h1v-2H9zm.5 1.5h-2v1h2v-1zm-1.5.5v-2H7v2h1zm6.5-8.5h2v-1h-2v1zm1.5-.5v2h1v-2h-1zm.5 1.5h-2v1h2v-1zm-1.5.5v-2h-1v2h1z" fill="#0078D7"/></svg>