<svg width="800" height="450" viewBox="0 0 800 450" fill="none" xmlns="http://www.w3.org/2000/svg">
<path d="M549.11 371.411L548.751 371.053L683.32 293.541C684.756 292.823 685.832 291.388 685.832 290.311C685.832 289.234 685.114 287.799 683.32 287.081L659.636 273.445L659.995 273.086L683.679 286.722C685.473 287.799 686.191 288.876 686.191 290.311C686.191 291.746 685.114 293.182 683.679 293.899L549.11 371.411Z" fill="#42E8E0"/>
<path d="M373.63 390.431C372.553 390.431 371.118 390.072 370.041 389.713L213.223 299.282C212.146 298.565 211.787 297.847 211.787 297.129C211.787 296.412 212.146 295.694 212.864 295.335L306.524 241.507C307.96 240.431 310.83 240.79 312.625 241.866L469.443 332.297C470.519 333.014 470.878 333.732 470.878 334.45C470.878 335.168 470.519 335.885 469.802 336.244L376.141 390.072C375.424 390.431 374.347 390.431 373.63 390.431ZM213.582 298.924L370.4 389.354C372.194 390.431 374.347 390.431 375.783 389.713L469.443 335.885C470.161 335.526 470.161 335.168 470.161 334.809C470.161 334.091 469.802 333.732 468.725 333.014L311.907 242.584C310.113 241.507 307.96 241.507 306.524 242.225L212.864 296.053C212.146 296.412 212.146 296.77 212.146 297.129C212.505 297.847 212.864 298.206 213.582 298.924Z" fill="#42E8E0"/>
<path d="M470.519 318.66L461.906 317.584L312.265 231.1C310.471 230.024 307.959 230.024 306.523 230.741L217.528 282.057L212.146 281.34V288.517C212.146 289.234 212.504 289.952 213.581 290.311L370.399 380.741C372.193 381.818 374.705 381.818 376.141 381.1L469.801 327.273C470.519 326.914 470.877 326.196 470.877 325.837V318.66H470.519Z" fill="url(#paint0_linear_53_4163)"/>
<path d="M213.582 283.493L370.4 373.923C372.194 375 374.706 375 376.142 374.282L469.802 320.454C471.237 319.737 471.237 317.942 469.443 317.225L312.625 226.794C310.831 225.718 308.319 225.718 306.883 226.435L213.223 280.263C211.429 280.981 211.788 282.416 213.582 283.493Z" fill="url(#paint1_linear_53_4163)"/>
<path opacity="0.3" d="M227.217 285.287L367.169 366.029C368.604 366.746 371.116 367.105 372.193 366.387L455.805 318.301C457.241 317.584 456.882 316.148 455.446 315.431L315.494 234.689C314.059 233.971 311.547 233.612 310.47 234.33L226.858 282.416C225.423 282.775 225.423 284.21 227.217 285.287Z" fill="#24126A"/>
<path d="M469.442 319.378L375.782 373.206C374.346 373.923 371.834 373.923 370.04 372.847L213.222 282.416C212.504 282.057 212.145 281.34 211.786 280.981C211.428 281.699 212.145 282.775 213.222 283.134L370.04 373.565C371.834 374.641 374.346 374.641 375.782 373.923L469.442 320.096C470.16 319.737 470.519 319.019 470.519 318.301C470.519 318.66 470.16 319.019 469.442 319.378Z" fill="white"/>
<path d="M367.889 238.278L367.53 237.919L417.41 209.21L286.788 133.852C283.2 131.699 278.535 131.699 274.946 133.852L232.602 158.254L232.243 157.895L274.587 133.493C278.535 131.34 283.2 131.34 287.147 133.493L418.846 209.569L418.487 209.928L367.889 238.278Z" fill="#42E8E0"/>
<path d="M649.944 278.828L624.465 264.833C618.724 261.603 613.7 254.785 611.906 247.608L590.016 157.177C588.58 151.435 585.35 146.411 582.121 143.182L578.891 152.512C578.173 155.024 576.738 156.459 574.585 157.177C572.073 158.254 569.202 157.536 566.331 155.742L562.743 153.588L559.513 163.278C558.795 165.789 557.36 167.225 555.207 167.943C552.695 169.019 549.824 168.301 546.953 166.507L542.288 163.995C536.906 161.124 532.24 154.306 530.446 147.488C528.652 141.388 525.063 136.364 521.475 133.134L519.322 137.44C518.604 139.234 517.169 140.67 515.374 141.029C513.221 141.746 510.35 141.388 507.48 139.593L504.968 138.158L500.303 148.206C499.585 150 498.15 151.435 496.355 151.794C494.202 152.512 491.331 152.153 488.461 150.359L483.078 147.488C477.336 144.258 472.312 137.081 470.877 129.904L448.987 31.9378C447.551 25.8373 444.322 20.8134 440.374 17.2249L408.795 103.349C408.078 105.502 406.642 106.938 404.848 107.656C402.695 108.373 399.465 108.014 396.595 106.22L393.365 104.426L389.776 114.474C389.059 116.627 387.623 118.062 385.829 118.78C383.676 119.498 380.446 119.139 377.575 117.345L359.274 106.579L359.633 106.22L379.011 95.0957L393.365 103.349L425.303 16.5072C426.379 13.2775 428.891 11.4833 432.121 11.4833C434.633 11.4833 437.862 13.2775 440.733 15.4306L444.322 5.02393C445.398 1.79426 447.91 0 450.781 0H451.14C457.599 0.358852 466.212 8.61245 468.724 19.378L490.614 117.345C492.049 124.522 497.073 131.699 502.815 134.569L505.327 136.005L507.48 131.34C508.915 128.469 511.068 127.034 514.298 127.392C516.451 127.751 519.322 128.828 521.834 130.622L526.858 120.215C528.293 117.345 530.446 115.909 533.676 116.268C539.776 116.627 548.03 123.804 550.901 134.569C552.695 141.388 557.36 147.847 562.743 150.718L563.102 151.077L566.331 141.029C567.408 137.44 569.92 135.646 573.149 135.646C576.02 135.646 579.25 137.44 582.121 139.952L585.351 129.904C586.427 126.316 588.939 124.522 592.169 124.522C598.628 124.88 607.24 132.416 610.111 143.541L632.001 233.971C633.795 241.148 638.461 247.967 644.202 251.196L669.681 265.191L669.322 265.55L643.843 251.555C638.102 248.325 633.078 241.507 631.283 234.33L609.394 143.9C606.882 133.134 598.269 125.598 592.169 125.239C588.939 125.239 586.786 126.675 585.709 130.263L582.48 140.67C586.068 143.9 589.298 148.923 590.733 155.024L612.623 245.455C614.417 252.632 619.083 259.45 624.824 262.679L650.303 276.675L649.944 278.828ZM522.193 132.775C526.14 136.005 529.729 141.029 531.523 147.488C533.317 154.306 537.982 160.766 543.365 163.636L548.03 166.148C550.901 167.943 553.772 168.301 555.925 167.584C557.719 166.866 559.154 165.431 559.872 163.278L563.102 153.588L562.384 153.23C557.001 150.359 552.336 143.541 550.542 136.722C547.671 126.316 539.776 119.498 533.676 118.78C530.805 118.421 528.652 119.856 527.217 122.368L522.193 132.775ZM563.461 152.871L567.049 155.024C569.92 156.818 572.791 157.177 574.944 156.459C576.738 155.742 578.173 154.306 578.891 152.153L582.121 142.464C579.25 139.952 576.02 138.158 573.149 138.158C569.92 138.158 567.767 139.593 566.69 143.182L563.461 152.871ZM441.092 17.2249C445.039 20.8134 448.628 26.1962 450.063 32.2967L471.953 130.263C473.389 137.44 478.413 144.617 484.154 147.488L489.537 150.359C492.408 151.794 494.92 152.512 497.073 151.794C498.867 151.435 499.944 150 501.02 148.206L505.685 138.158L503.173 136.722C497.432 133.493 492.408 126.316 490.972 119.139L469.083 21.1723C466.571 10.4067 457.958 2.51196 451.858 2.1531C448.628 1.79425 446.475 3.58852 445.398 6.81819L441.092 17.2249ZM505.685 138.158L508.197 139.593C511.068 141.029 513.58 141.746 515.733 141.029C517.527 140.67 518.604 139.234 519.681 137.44L521.834 132.775C519.322 130.981 516.81 129.545 514.657 129.545C511.786 129.187 509.633 130.622 508.197 133.134L505.685 138.158ZM360.35 107.297L377.934 117.345C380.805 119.139 383.676 119.498 385.829 118.78C387.623 118.062 389.059 116.627 389.776 114.833L393.365 104.785L379.011 96.5311L360.35 107.297ZM393.724 104.785L396.953 106.579C399.824 108.373 402.695 108.732 404.848 108.014C406.642 107.297 408.078 105.861 408.795 104.067L440.374 17.5837C437.504 15.0718 434.633 13.6364 432.121 13.6364C428.891 13.2775 426.738 15.0718 425.662 18.3014L393.724 104.785Z" fill="#42E8E0"/>
<path d="M447.27 2.47453L427.972 13.5433L428.15 13.8546L447.449 2.7858L447.27 2.47453Z" fill="#42E8E0"/>
<path d="M509.992 130.622V130.263L529.37 118.78L529.729 119.139L509.992 130.622Z" fill="#42E8E0"/>
<path d="M589.474 126.915L568.925 138.693L569.104 139.005L589.652 127.227L589.474 126.915Z" fill="#42E8E0"/>
<path d="M649.944 278.828L624.465 264.833C618.724 261.603 613.7 254.785 611.906 247.608L590.016 157.177C588.58 151.435 585.35 146.411 582.121 143.182L578.891 152.512C578.173 155.024 576.738 156.459 574.585 157.177C572.073 158.254 569.202 157.536 566.331 155.742L562.743 153.588L559.513 163.278C558.795 165.789 557.36 167.225 555.207 167.943C552.695 169.019 549.824 168.301 546.953 166.507L542.288 163.995C536.906 161.124 532.24 154.306 530.446 147.488C528.652 141.388 525.063 136.364 521.475 133.134L519.322 137.44C518.604 139.234 517.169 140.67 515.374 141.029C513.221 141.746 510.35 141.388 507.48 139.593L504.968 138.158L500.303 148.206C499.585 150 498.15 151.435 496.355 151.794C494.202 152.512 491.331 152.153 488.461 150.359L483.078 147.488C477.336 144.258 472.312 137.081 470.877 129.904L448.987 31.9378C447.551 25.8373 444.322 20.8134 440.374 17.2249L408.795 103.349C408.078 105.502 406.642 106.938 404.848 107.656C402.695 108.373 399.465 108.014 396.595 106.22L393.365 104.426L389.776 114.474C389.059 116.627 387.623 118.062 385.829 118.78C383.676 119.498 380.446 119.139 377.575 117.345L359.274 106.579L359.633 106.22L379.011 95.0957L393.365 103.349L425.303 16.5072C426.379 13.2775 428.891 11.4833 432.121 11.4833C434.633 11.4833 437.862 13.2775 440.733 15.4306L444.322 5.02393C445.398 1.79426 447.91 0 450.781 0H451.14C457.599 0.358852 466.212 8.61245 468.724 19.378L490.614 117.345C492.049 124.522 497.073 131.699 502.815 134.569L505.327 136.005L507.48 131.34C508.915 128.469 511.068 127.034 514.298 127.392C516.451 127.751 519.322 128.828 521.834 130.622L526.858 120.215C528.293 117.345 530.446 115.909 533.676 116.268C539.776 116.627 548.03 123.804 550.901 134.569C552.695 141.388 557.36 147.847 562.743 150.718L563.102 151.077L566.331 141.029C567.408 137.44 569.92 135.646 573.149 135.646C576.02 135.646 579.25 137.44 582.121 139.952L585.351 129.904C586.427 126.316 588.939 124.522 592.169 124.522C598.628 124.88 607.24 132.416 610.111 143.541L632.001 233.971C633.795 241.148 638.461 247.967 644.202 251.196L669.681 265.191L669.322 265.55L643.843 251.555C638.102 248.325 633.078 241.507 631.283 234.33L609.394 143.9C606.882 133.134 598.269 125.598 592.169 125.239C588.939 125.239 586.786 126.675 585.709 130.263L582.48 140.67C586.068 143.9 589.298 148.923 590.733 155.024L612.623 245.455C614.417 252.632 619.083 259.45 624.824 262.679L650.303 276.675L649.944 278.828ZM522.193 132.775C526.14 136.005 529.729 141.029 531.523 147.488C533.317 154.306 537.982 160.766 543.365 163.636L548.03 166.148C550.901 167.943 553.772 168.301 555.925 167.584C557.719 166.866 559.154 165.431 559.872 163.278L563.102 153.588L562.384 153.23C557.001 150.359 552.336 143.541 550.542 136.722C547.671 126.316 539.776 119.498 533.676 118.78C530.805 118.421 528.652 119.856 527.217 122.368L522.193 132.775ZM563.461 152.871L567.049 155.024C569.92 156.818 572.791 157.177 574.944 156.459C576.738 155.742 578.173 154.306 578.891 152.153L582.121 142.464C579.25 139.952 576.02 138.158 573.149 138.158C569.92 138.158 567.767 139.593 566.69 143.182L563.461 152.871ZM441.092 17.2249C445.039 20.8134 448.628 26.1962 450.063 32.2967L471.953 130.263C473.389 137.44 478.413 144.617 484.154 147.488L489.537 150.359C492.408 151.794 494.92 152.512 497.073 151.794C498.867 151.435 499.944 150 501.02 148.206L505.685 138.158L503.173 136.722C497.432 133.493 492.408 126.316 490.972 119.139L469.083 21.1723C466.571 10.4067 457.958 2.51196 451.858 2.1531C448.628 1.79425 446.475 3.58852 445.398 6.81819L441.092 17.2249ZM505.685 138.158L508.197 139.593C511.068 141.029 513.58 141.746 515.733 141.029C517.527 140.67 518.604 139.234 519.681 137.44L521.834 132.775C519.322 130.981 516.81 129.545 514.657 129.545C511.786 129.187 509.633 130.622 508.197 133.134L505.685 138.158ZM360.35 107.297L377.934 117.345C380.805 119.139 383.676 119.498 385.829 118.78C387.623 118.062 389.059 116.627 389.776 114.833L393.365 104.785L379.011 96.5311L360.35 107.297ZM393.724 104.785L396.953 106.579C399.824 108.373 402.695 108.732 404.848 108.014C406.642 107.297 408.078 105.861 408.795 104.067L440.374 17.5837C437.504 15.0718 434.633 13.6364 432.121 13.6364C428.891 13.2775 426.738 15.0718 425.662 18.3014L393.724 104.785Z" fill="#42E8E0"/>
<path opacity="0.5" d="M379.011 96.5312L396.954 106.938C402.337 110.168 407.002 108.732 408.796 104.067L444.322 6.81826C448.27 -4.30614 465.136 5.7417 468.365 21.5312L490.255 119.498C491.691 126.675 496.715 133.852 502.456 137.081L507.839 139.952C512.863 142.823 517.528 142.105 519.681 137.799L526.858 122.368C531.523 112.679 546.236 121.651 550.542 136.364C552.337 143.182 557.002 149.641 562.384 152.512L567.049 155.024C572.432 158.254 577.456 156.818 579.25 151.794L585.71 131.34C589.298 119.857 606.164 129.546 609.753 145.335L631.643 235.766C633.437 242.943 638.461 249.761 643.844 252.99L669.322 266.986L379.011 96.5312Z" fill="url(#paint2_linear_53_4163)"/>
<path opacity="0.5" d="M359.631 107.297L377.574 117.703C382.957 120.933 387.622 119.498 389.416 114.833L424.942 17.5837C428.89 6.45934 445.756 16.5072 448.985 32.2967L470.875 130.263C472.311 137.44 477.335 144.617 483.076 147.847L488.459 150.718C493.483 153.589 498.148 152.871 500.301 148.565L507.478 133.134C512.143 123.445 526.856 132.416 531.162 147.129C532.957 153.947 537.622 160.407 543.005 163.278L547.67 165.789C553.052 169.019 558.076 167.584 559.871 162.56L566.33 142.105C569.918 130.622 586.784 140.311 590.373 156.1L612.263 246.531C614.057 253.708 619.081 260.526 624.464 263.756L649.942 277.751L359.631 107.297Z" fill="url(#paint3_linear_53_4163)"/>
<path d="M220.761 252.991C218.249 252.991 216.096 252.632 214.301 251.555L183.799 233.971C182.005 232.895 180.928 231.459 180.928 230.024C180.928 228.589 182.005 227.153 183.799 226.077L214.301 208.493C217.89 206.34 223.99 206.34 227.579 208.493L258.081 226.077C259.876 227.153 260.952 228.589 260.952 230.024C260.952 231.459 259.876 232.895 258.081 233.971L227.579 251.555C225.785 252.273 223.273 252.991 220.761 252.991ZM214.66 250.837C218.249 252.99 223.99 252.99 227.22 250.837L257.722 233.254C259.517 232.177 260.234 231.101 260.234 229.665C260.234 228.23 259.158 227.153 257.722 226.077L227.22 208.493C223.632 206.34 217.89 206.34 214.66 208.493L184.158 226.077C182.364 227.153 181.646 228.23 181.646 229.665C181.646 231.101 182.722 232.177 184.158 233.254L214.66 250.837Z" fill="#42E8E0"/>
<path d="M312.267 198.086L332.004 80.3828L330.568 79.6652L333.08 78.2297C333.439 77.8709 334.157 77.8709 334.874 78.2297L493.128 169.737C494.563 170.455 495.281 172.249 495.281 173.684L475.185 292.105C475.185 292.823 474.826 293.182 474.468 293.182L471.956 294.617L471.597 292.464L314.061 201.675C312.984 201.316 311.908 199.522 312.267 198.086Z" fill="url(#paint4_linear_53_4163)"/>
<path d="M492.053 173.325L494.564 172.249C494.923 172.967 494.923 173.684 494.923 174.043L474.828 292.464C474.828 293.182 474.469 293.541 474.11 293.541L471.598 294.976L471.239 292.823L463.344 288.158L492.053 173.325Z" fill="url(#paint5_linear_53_4163)"/>
<path d="M311.549 203.469L469.803 294.976C470.879 295.694 471.956 295.335 472.315 293.899L492.41 175.478C492.769 174.043 491.693 172.249 490.257 171.531L332.004 80.0239C330.927 79.3062 329.85 79.665 329.492 81.1004L309.396 199.521C309.396 200.957 310.472 202.751 311.549 203.469Z" fill="#24126A"/>
<g opacity="0.51">
<path d="M331.643 82.177L490.614 174.043L470.519 292.823L311.548 200.957L331.643 82.177Z" fill="#453C9E"/>
</g>
<path d="M212.145 259.45L220.758 264.115L307.241 214.235C308.676 213.517 311.188 213.517 312.983 214.593L462.265 300.718C463.7 300 470.16 296.771 470.16 296.771L466.93 301.794C466.93 302.153 466.571 302.512 466.212 302.871L375.064 355.622C373.629 356.34 371.117 356.34 369.322 355.263L216.451 266.986C215.734 266.627 215.375 266.268 215.016 265.55L212.145 259.45Z" fill="url(#paint6_linear_53_4163)"/>
<path d="M213.582 260.885L370.4 351.316C372.194 352.392 374.706 352.393 376.142 351.675L469.802 297.847C471.237 297.129 471.237 295.335 469.443 294.617L312.625 204.187C310.831 203.11 308.319 203.11 306.883 203.828L213.223 257.656C211.429 258.732 211.788 260.168 213.582 260.885Z" fill="url(#paint7_linear_53_4163)"/>
<path d="M213.581 260.168L370.399 350.598C372.193 351.675 374.705 351.675 376.14 350.957L469.801 297.129C470.16 296.77 470.518 296.412 470.877 296.053C470.877 296.77 470.877 297.488 469.801 297.847L376.14 351.675C374.705 352.392 372.193 352.392 370.399 351.316L213.581 260.885C212.504 260.168 212.145 259.45 212.145 258.732C212.145 259.45 212.863 259.809 213.581 260.168Z" fill="white"/>
<g opacity="0.15">
<mask id="mask0_53_4163" style="mask-type:luminance" maskUnits="userSpaceOnUse" x="311" y="82" width="180" height="211">
<path d="M490.614 174.043L331.643 82.1771L311.548 200.957L470.519 292.823L490.614 174.043Z" fill="white"/>
</mask>
<g mask="url(#mask0_53_4163)">
<path d="M311.547 202.751L320.16 207.416L406.643 157.536C408.079 156.818 410.591 156.818 412.385 157.895L561.667 244.019C563.103 243.302 569.562 240.072 569.562 240.072L566.332 245.096C566.332 245.455 565.973 245.814 565.614 246.172L474.466 298.924C473.031 299.641 470.519 299.641 468.725 298.565L315.854 210.287C315.136 209.928 314.777 209.57 314.418 208.852L311.547 202.751Z" fill="url(#paint8_linear_53_4163)"/>
<path d="M312.984 204.187L469.802 294.617C471.596 295.694 474.108 295.694 475.544 294.976L569.204 241.148C570.64 240.431 570.639 238.636 568.845 237.919L412.027 147.488C410.233 146.412 407.721 146.412 406.285 147.129L312.625 200.957C310.831 201.675 311.19 203.11 312.984 204.187Z" fill="url(#paint9_linear_53_4163)"/>
<path d="M568.488 237.56L411.67 147.129C410.593 146.412 409.158 146.053 407.722 146.412C408.799 146.412 409.517 146.77 410.593 147.129L567.411 237.56C569.206 238.636 569.206 240.072 567.77 240.79L474.11 294.617C473.751 294.976 473.033 294.976 472.316 295.335C473.392 295.335 474.469 295.335 475.545 294.617L569.206 240.79C570.282 240.072 570.282 238.636 568.488 237.56Z" fill="white"/>
<g opacity="0.5">
<path d="M394.803 188.756L389.779 185.885C389.42 185.526 388.702 185.526 388.344 185.885L382.602 189.115C382.243 189.474 382.243 189.833 382.602 189.833L387.626 192.703C387.985 193.062 388.702 193.062 389.061 192.703L394.803 189.474C395.162 189.115 395.162 188.756 394.803 188.756Z" fill="#24126A"/>
<path d="M402.695 193.062L397.672 190.192C397.313 189.833 396.595 189.833 396.236 190.192L390.494 193.421C390.136 193.78 390.136 194.139 390.494 194.139L395.518 197.01C395.877 197.369 396.595 197.369 396.954 197.01L402.695 193.78C403.054 193.78 403.054 193.421 402.695 193.062Z" fill="#24126A"/>
<path d="M410.59 197.727L405.566 194.857C405.207 194.498 404.49 194.498 404.131 194.857L398.389 198.086C398.03 198.445 398.03 198.804 398.389 198.804L403.413 201.675C403.772 202.034 404.49 202.034 404.849 201.675L410.59 198.445C410.949 198.086 410.949 197.727 410.59 197.727Z" fill="#24126A"/>
<path d="M404.492 203.469L399.468 200.598C399.109 200.239 398.391 200.239 398.033 200.598L393.367 203.469C393.009 203.828 393.009 204.187 393.367 204.187L398.391 207.057C398.75 207.416 399.468 207.416 399.827 207.057L404.492 204.187C404.851 204.187 404.851 203.828 404.492 203.469Z" fill="#24126A"/>
<path d="M412.384 208.134L407.36 205.263C407.002 204.904 406.284 204.904 405.925 205.263L401.26 208.134C400.901 208.493 400.901 208.852 401.26 208.852L406.284 211.723C406.643 212.082 407.361 212.082 407.719 211.723L412.384 208.852C412.743 208.493 412.743 208.134 412.384 208.134Z" fill="#24126A"/>
<path d="M419.922 212.44L414.898 209.569C414.539 209.211 413.821 209.211 413.463 209.569L408.797 212.44C408.439 212.799 408.439 213.158 408.797 213.158L413.821 216.029C414.18 216.388 414.898 216.388 415.257 216.029L419.922 213.158C420.281 213.158 420.281 212.799 419.922 212.44Z" fill="#24126A"/>
<path d="M427.818 217.105L422.794 214.235C422.435 213.876 421.718 213.876 421.359 214.235L416.694 217.105C416.335 217.464 416.335 217.823 416.694 217.823L421.718 220.694C422.076 221.053 422.794 221.053 423.153 220.694L427.818 217.823C428.177 217.464 428.177 217.105 427.818 217.105Z" fill="#24126A"/>
<path d="M435.709 221.412L430.685 218.541C430.326 218.182 429.609 218.182 429.25 218.541L424.585 221.412C424.226 221.77 424.226 222.129 424.585 222.129L429.609 225C429.967 225.359 430.685 225.359 431.044 225L435.709 222.129C436.068 222.129 436.068 221.77 435.709 221.412Z" fill="#24126A"/>
<path d="M443.247 226.077L438.223 223.206C437.865 222.847 437.147 222.847 436.788 223.206L432.123 226.077C431.764 226.436 431.764 226.794 432.123 226.794L437.147 229.665C437.506 230.024 438.223 230.024 438.582 229.665L443.247 226.794C443.606 226.436 443.606 226.077 443.247 226.077Z" fill="#24126A"/>
<path d="M451.143 230.383L446.119 227.512C445.76 227.153 445.042 227.153 444.683 227.512L440.018 230.383C439.66 230.742 439.66 231.101 440.018 231.101L445.042 233.971C445.401 234.33 446.119 234.33 446.478 233.971L451.143 231.101C451.502 231.101 451.502 230.742 451.143 230.383Z" fill="#24126A"/>
<path d="M458.677 235.048L453.653 232.177C453.295 231.818 452.577 231.818 452.218 232.177L447.553 235.048C447.194 235.407 447.194 235.766 447.553 235.766L452.577 238.636C452.936 238.995 453.653 238.995 454.012 238.636L458.677 235.766C459.036 235.407 459.395 235.048 458.677 235.048Z" fill="#24126A"/>
<path d="M466.573 239.354L461.549 236.483C461.19 236.125 460.472 236.125 460.113 236.483L455.448 239.354C455.09 239.713 455.09 240.072 455.448 240.072L460.472 242.943C460.831 243.302 461.549 243.302 461.908 242.943L466.573 240.072C466.932 240.072 466.932 239.713 466.573 239.354Z" fill="#24126A"/>
<path d="M474.468 244.019L469.444 241.148C469.085 240.79 468.368 240.79 468.009 241.148L463.344 244.019C462.985 244.378 462.985 244.737 463.344 244.737L468.368 247.608C468.727 247.967 469.444 247.967 469.803 247.608L474.468 244.737C474.827 244.378 474.827 244.019 474.468 244.019Z" fill="#24126A"/>
<path d="M401.261 209.928L396.237 207.057C395.878 206.699 395.16 206.699 394.802 207.057L390.136 209.928C389.778 210.287 389.778 210.646 390.136 210.646L395.16 213.517C395.519 213.876 396.237 213.876 396.596 213.517L401.261 210.646C401.62 210.646 401.62 210.287 401.261 209.928Z" fill="#24126A"/>
<path d="M393.365 205.263L388.341 202.392C387.983 202.033 387.265 202.033 386.906 202.392L382.241 205.263C381.882 205.622 381.882 205.981 382.241 205.981L387.265 208.852C387.624 209.21 388.341 209.21 388.7 208.852L393.365 205.981C393.724 205.981 393.724 205.622 393.365 205.263Z" fill="#24126A"/>
<path d="M385.472 200.957L374.706 194.857C374.347 194.498 373.629 194.498 373.271 194.857L368.606 197.727C368.247 198.086 368.247 198.445 368.606 198.445L379.371 204.546C379.73 204.904 380.448 204.904 380.807 204.546L385.472 201.675C385.83 201.316 385.83 200.957 385.472 200.957Z" fill="#24126A"/>
<path d="M376.498 203.828L367.886 198.804C367.527 198.445 366.809 198.445 366.451 198.804L361.786 201.675C361.427 202.033 361.427 202.392 361.786 202.392L370.398 207.416C370.757 207.775 371.475 207.775 371.833 207.416L376.498 204.545C376.857 204.545 376.857 204.187 376.498 203.828Z" fill="#24126A"/>
<path d="M409.157 214.235L404.133 211.364C403.774 211.005 403.057 211.005 402.698 211.364L398.033 214.235C397.674 214.593 397.674 214.952 398.033 214.952L403.057 217.823C403.415 218.182 404.133 218.182 404.492 217.823L409.157 214.952C409.516 214.952 409.516 214.593 409.157 214.235Z" fill="#24126A"/>
<path d="M416.692 218.9L411.668 216.029C411.309 215.67 410.591 215.67 410.232 216.029L405.567 218.9C405.208 219.258 405.208 219.617 405.567 219.617L410.591 222.488C410.95 222.847 411.668 222.847 412.027 222.488L416.692 219.617C417.05 219.617 417.05 219.258 416.692 218.9Z" fill="#24126A"/>
<path d="M424.586 223.206L419.562 220.335C419.204 219.976 418.486 219.976 418.127 220.335L413.462 223.206C413.103 223.565 413.103 223.923 413.462 223.923L418.486 226.794C418.845 227.153 419.563 227.153 419.921 226.794L424.586 223.923C424.945 223.923 424.945 223.565 424.586 223.206Z" fill="#24126A"/>
<path d="M432.482 227.871L427.458 225C427.099 224.641 426.381 224.641 426.022 225L421.357 227.871C420.999 228.23 420.999 228.589 421.357 228.589L426.381 231.46C426.74 231.818 427.458 231.818 427.817 231.46L432.482 228.589C432.841 228.589 432.841 228.23 432.482 227.871Z" fill="#24126A"/>
<path d="M440.016 232.177L434.992 229.306C434.634 228.947 433.916 228.947 433.557 229.306L428.892 232.177C428.533 232.536 428.533 232.895 428.892 232.895L433.916 235.766C434.275 236.125 434.992 236.125 435.351 235.766L440.016 232.895C440.375 232.895 440.375 232.536 440.016 232.177Z" fill="#24126A"/>
<path d="M447.912 236.842L442.888 233.971C442.529 233.613 441.811 233.613 441.453 233.971L436.787 236.842C436.429 237.201 436.429 237.56 436.787 237.56L441.811 240.431C442.17 240.79 442.888 240.79 443.247 240.431L447.912 237.56C448.271 237.56 448.271 237.201 447.912 236.842Z" fill="#24126A"/>
<path d="M455.446 241.148L450.422 238.278C450.064 237.919 449.346 237.919 448.987 238.278L444.322 241.148C443.963 241.507 443.963 241.866 444.322 241.866L449.346 244.737C449.705 245.096 450.422 245.096 450.781 244.737L455.446 241.866C455.805 241.866 456.164 241.507 455.446 241.148Z" fill="#24126A"/>
<path d="M463.342 245.814L458.318 242.943C457.959 242.584 457.241 242.584 456.882 242.943L452.217 245.814C451.859 246.172 451.859 246.531 452.217 246.531L457.241 249.402C457.6 249.761 458.318 249.761 458.677 249.402L463.342 246.531C463.701 246.531 463.701 246.172 463.342 245.814Z" fill="#24126A"/>
<path d="M471.237 250.12L466.213 247.249C465.855 246.89 465.137 246.89 464.778 247.249L460.113 250.12C459.754 250.479 459.754 250.837 460.113 250.837L465.137 253.708C465.496 254.067 466.213 254.067 466.572 253.708L471.237 250.837C471.596 250.837 471.596 250.479 471.237 250.12Z" fill="#24126A"/>
<path d="M484.872 258.373L473.748 251.914C473.389 251.555 472.671 251.555 472.313 251.914L467.647 254.785C467.289 255.144 467.289 255.502 467.647 255.502L478.772 261.962C479.131 262.321 479.848 262.321 480.207 261.962L484.872 259.091C485.231 258.732 485.231 258.373 484.872 258.373Z" fill="#24126A"/>
<path d="M470.518 266.627L461.188 261.244C460.829 260.885 460.111 260.885 459.753 261.244L455.087 264.115C454.729 264.474 454.729 264.833 455.087 264.833L464.418 270.215C464.776 270.574 465.494 270.574 465.853 270.215L470.518 267.345C471.236 266.986 471.236 266.627 470.518 266.627Z" fill="#24126A"/>
<path d="M408.081 222.129L403.057 219.258C402.698 218.899 401.98 218.899 401.622 219.258L396.956 222.129C396.598 222.488 396.598 222.847 396.956 222.847L401.98 225.718C402.339 226.076 403.057 226.076 403.416 225.718L408.081 222.847C408.44 222.847 408.44 222.129 408.081 222.129Z" fill="#24126A"/>
<path d="M400.185 217.464L395.162 214.593C394.803 214.234 394.085 214.234 393.726 214.593L389.061 217.464C388.702 217.823 388.702 218.182 389.061 218.182L394.085 221.053C394.444 221.411 395.161 221.411 395.52 221.053L400.185 218.182C400.544 218.182 400.544 217.823 400.185 217.464Z" fill="#24126A"/>
<path d="M391.933 212.799L386.909 209.928C386.55 209.57 385.832 209.57 385.473 209.928L380.808 212.799C380.449 213.158 380.449 213.517 380.808 213.517L385.832 216.388C386.191 216.747 386.909 216.747 387.268 216.388L391.933 213.517C392.291 213.517 392.65 213.158 391.933 212.799Z" fill="#24126A"/>
<path d="M384.036 208.134L379.013 205.263C378.654 204.904 377.936 204.904 377.577 205.263L372.912 208.134C372.553 208.493 372.553 208.852 372.912 208.852L377.936 211.723C378.295 212.082 379.012 212.082 379.371 211.723L384.036 208.852C384.395 208.852 384.395 208.493 384.036 208.134Z" fill="#24126A"/>
<path d="M415.615 226.435L410.591 223.565C410.233 223.206 409.515 223.206 409.156 223.565L404.491 226.435C404.132 226.794 404.132 227.153 404.491 227.153L409.515 230.024C409.874 230.383 410.592 230.383 410.95 230.024L415.615 227.153C415.974 227.153 415.974 226.794 415.615 226.435Z" fill="#24126A"/>
<path d="M423.511 231.101L418.487 228.23C418.128 227.871 417.41 227.871 417.051 228.23L412.386 231.101C412.028 231.459 412.028 231.818 412.386 231.818L417.41 234.689C417.769 235.048 418.487 235.048 418.846 234.689L423.511 231.818C423.87 231.459 423.87 231.101 423.511 231.101Z" fill="#24126A"/>
<path d="M431.406 235.407L426.382 232.536C426.024 232.177 425.306 232.177 424.947 232.536L420.282 235.407C419.923 235.766 419.923 236.125 420.282 236.125L425.306 238.995C425.665 239.354 426.382 239.354 426.741 238.995L431.406 236.125C431.765 236.125 431.765 235.766 431.406 235.407Z" fill="#24126A"/>
<path d="M438.941 240.072L433.917 237.201C433.558 236.842 432.84 236.842 432.482 237.201L427.816 240.072C427.458 240.431 427.458 240.789 427.816 240.789L432.84 243.66C433.199 244.019 433.917 244.019 434.276 243.66L438.941 240.789C439.3 240.431 439.3 240.072 438.941 240.072Z" fill="#24126A"/>
<path d="M446.836 244.378L441.812 241.507C441.453 241.148 440.735 241.148 440.376 241.507L435.711 244.378C435.352 244.737 435.352 245.096 435.711 245.096L440.735 247.967C441.094 248.325 441.812 248.325 442.17 247.967L446.836 245.096C447.194 245.096 447.194 244.737 446.836 244.378Z" fill="#24126A"/>
<path d="M454.37 249.043L449.346 246.172C448.987 245.813 448.27 245.813 447.911 246.172L443.246 249.043C442.887 249.402 442.887 249.761 443.246 249.761L448.27 252.632C448.628 252.99 449.346 252.99 449.705 252.632L454.37 249.761C454.729 249.402 455.088 249.043 454.37 249.043Z" fill="#24126A"/>
<path d="M462.266 253.349L457.242 250.479C456.884 250.12 456.166 250.12 455.807 250.479L451.142 253.349C450.783 253.708 450.783 254.067 451.142 254.067L456.166 256.938C456.525 257.297 457.242 257.297 457.601 256.938L462.266 254.067C462.625 254.067 462.625 253.708 462.266 253.349Z" fill="#24126A"/>
<path d="M470.162 258.014L465.138 255.144C464.779 254.785 464.061 254.785 463.702 255.144L459.037 258.014C458.679 258.373 458.679 258.732 459.037 258.732L464.061 261.603C464.42 261.962 465.138 261.962 465.497 261.603L470.162 258.732C470.521 258.373 470.521 258.014 470.162 258.014Z" fill="#24126A"/>
<path d="M477.696 262.321L472.672 259.45C472.313 259.091 471.596 259.091 471.237 259.45L466.572 262.321C466.213 262.679 466.213 263.038 466.572 263.038L471.596 265.909C471.955 266.268 472.672 266.268 473.031 265.909L477.696 263.038C478.055 263.038 478.055 262.679 477.696 262.321Z" fill="#24126A"/>
<path d="M389.059 219.617L384.035 216.746C383.676 216.388 382.958 216.388 382.6 216.746L377.934 219.617C377.576 219.976 377.576 220.335 377.934 220.335L382.958 223.206C383.317 223.565 384.035 223.565 384.394 223.206L389.059 220.335C389.777 219.976 389.777 219.617 389.059 219.617Z" fill="#24126A"/>
<path d="M381.524 214.952L376.501 212.081C376.142 211.722 375.424 211.722 375.065 212.081L370.4 214.952C370.041 215.311 370.041 215.67 370.4 215.67L375.424 218.541C375.783 218.899 376.501 218.899 376.859 218.541L381.524 215.67C381.883 215.67 381.883 215.311 381.524 214.952Z" fill="#24126A"/>
<path d="M373.629 210.646L368.605 207.775C368.246 207.416 367.528 207.416 367.17 207.775L362.505 210.646C362.146 211.005 362.146 211.364 362.505 211.364L367.528 214.234C367.887 214.593 368.605 214.593 368.964 214.234L373.629 211.364C373.988 211.364 374.347 210.646 373.629 210.646Z" fill="#24126A"/>
<path d="M366.094 205.981L361.071 203.11C360.712 202.751 359.994 202.751 359.635 203.11L354.97 205.981C354.611 206.34 354.611 206.699 354.97 206.699L359.994 209.569C360.353 209.928 361.07 209.928 361.429 209.569L366.094 206.699C366.453 206.699 366.453 206.34 366.094 205.981Z" fill="#24126A"/>
<path d="M358.558 210.646L353.534 207.775C353.176 207.416 352.458 207.416 352.099 207.775L350.664 208.852C350.305 209.211 350.305 209.569 350.664 209.569L355.688 212.44C356.046 212.799 356.764 212.799 357.123 212.44L358.558 211.364C358.917 211.005 358.917 210.646 358.558 210.646Z" fill="#24126A"/>
<path d="M368.605 216.388L363.582 213.517C363.223 213.158 362.505 213.158 362.146 213.517L360.711 214.593C360.352 214.952 360.352 215.311 360.711 215.311L365.735 218.182C366.094 218.541 366.811 218.541 367.17 218.182L368.605 217.105C368.964 216.746 368.964 216.388 368.605 216.388Z" fill="#24126A"/>
<path d="M376.5 220.694L371.476 217.823C371.118 217.464 370.4 217.464 370.041 217.823L368.606 218.9C368.247 219.259 368.247 219.617 368.606 219.617L373.63 222.488C373.988 222.847 374.706 222.847 375.065 222.488L376.5 221.412C376.859 221.412 376.859 221.053 376.5 220.694Z" fill="#24126A"/>
<path d="M384.035 225L379.011 222.129C378.652 221.77 377.934 221.77 377.575 222.129L376.14 223.206C375.781 223.565 375.781 223.924 376.14 223.924L381.164 226.794C381.523 227.153 382.241 227.153 382.599 226.794L384.035 225.718C384.394 225.718 384.394 225.359 384.035 225Z" fill="#24126A"/>
<path d="M391.573 229.665L386.549 226.794C386.19 226.435 385.472 226.435 385.114 226.794L383.678 227.512C383.319 227.871 383.319 228.23 383.678 228.23L388.702 231.101C389.061 231.459 389.779 231.459 390.138 231.101L391.573 230.024C391.932 230.383 392.291 229.665 391.573 229.665Z" fill="#24126A"/>
<path d="M434.635 254.426L429.611 251.555C429.252 251.196 428.534 251.196 428.176 251.555L426.74 252.632C426.381 252.99 426.381 253.349 426.74 253.349L431.764 256.22C432.123 256.579 432.841 256.579 433.199 256.22L434.635 255.143C434.994 255.143 434.994 254.785 434.635 254.426Z" fill="#24126A"/>
<path d="M442.169 258.732L437.145 255.861C436.787 255.502 436.069 255.502 435.71 255.861L434.275 256.938C433.916 257.297 433.916 257.656 434.275 257.656L439.299 260.526C439.657 260.885 440.375 260.885 440.734 260.526L442.169 259.45C442.887 259.45 442.887 259.091 442.169 258.732Z" fill="#24126A"/>
<path d="M450.066 263.397L445.042 260.526C444.683 260.167 443.965 260.167 443.606 260.526L442.171 261.603C441.812 261.962 441.812 262.321 442.171 262.321L447.195 265.191C447.554 265.55 448.271 265.55 448.63 265.191L450.066 264.115C450.425 263.756 450.425 263.397 450.066 263.397Z" fill="#24126A"/>
<path d="M457.6 267.703L452.576 264.833C452.217 264.474 451.5 264.474 451.141 264.833L449.705 265.909C449.347 266.268 449.347 266.627 449.705 266.627L454.729 269.498C455.088 269.857 455.806 269.857 456.165 269.498L457.6 268.421C457.959 268.421 457.959 268.062 457.6 267.703Z" fill="#24126A"/>
<path d="M396.954 223.923L391.93 221.053C391.572 220.694 390.854 220.694 390.495 221.053L385.83 223.923C385.471 224.282 385.471 224.641 385.83 224.641L390.854 227.512C391.213 227.871 391.93 227.871 392.289 227.512L396.954 224.641C397.313 224.641 397.313 224.282 396.954 223.923Z" fill="#24126A"/>
<path d="M404.85 228.589L399.826 225.718C399.467 225.359 398.749 225.359 398.391 225.718L393.725 228.589C393.367 228.947 393.367 229.306 393.725 229.306L398.749 232.177C399.108 232.536 399.826 232.536 400.185 232.177L404.85 229.306C405.209 228.947 405.209 228.589 404.85 228.589Z" fill="#24126A"/>
<path d="M412.384 232.895L407.36 230.024C407.002 229.665 406.284 229.665 405.925 230.024L401.26 232.895C400.901 233.254 400.901 233.613 401.26 233.613L406.284 236.483C406.643 236.842 407.361 236.842 407.719 236.483L412.384 233.613C412.743 233.613 412.743 233.254 412.384 232.895Z" fill="#24126A"/>
<path d="M420.28 237.56L415.256 234.689C414.897 234.33 414.179 234.33 413.82 234.689L409.155 237.56C408.797 237.919 408.797 238.278 409.155 238.278L414.179 241.148C414.538 241.507 415.256 241.507 415.615 241.148L420.28 238.278C420.639 237.919 420.639 237.56 420.28 237.56Z" fill="#24126A"/>
<path d="M428.175 241.866L423.151 238.995C422.792 238.637 422.074 238.637 421.715 238.995L417.05 241.866C416.691 242.225 416.691 242.584 417.05 242.584L422.074 245.455C422.433 245.814 423.151 245.814 423.51 245.455L428.175 242.584C428.533 242.584 428.533 242.225 428.175 241.866Z" fill="#24126A"/>
<path d="M435.709 246.531L430.685 243.66C430.326 243.302 429.609 243.302 429.25 243.66L424.585 246.531C424.226 246.89 424.226 247.249 424.585 247.249L429.609 250.12C429.967 250.479 430.685 250.479 431.044 250.12L435.709 247.249C436.068 246.89 436.068 246.531 435.709 246.531Z" fill="#24126A"/>
<path d="M443.605 250.837L438.581 247.967C438.223 247.608 437.505 247.608 437.146 247.967L432.481 250.837C432.122 251.196 432.122 251.555 432.481 251.555L437.505 254.426C437.864 254.785 438.581 254.785 438.94 254.426L443.605 251.555C443.964 251.555 443.964 251.196 443.605 250.837Z" fill="#24126A"/>
<path d="M451.143 255.143L446.119 252.273C445.76 251.914 445.042 251.914 444.683 252.273L440.018 255.143C439.66 255.502 439.66 255.861 440.018 255.861L445.042 258.732C445.401 259.091 446.119 259.091 446.478 258.732L451.143 255.861C451.502 255.861 451.86 255.502 451.143 255.143Z" fill="#24126A"/>
<path d="M459.035 259.809L454.011 256.938C453.653 256.579 452.935 256.579 452.576 256.938L447.911 259.809C447.552 260.167 447.552 260.526 447.911 260.526L452.935 263.397C453.294 263.756 454.011 263.756 454.37 263.397L459.035 260.526C459.394 260.526 459.394 260.167 459.035 259.809Z" fill="#24126A"/>
<path d="M396.596 198.804L381.883 190.192C381.524 189.833 380.807 189.833 380.448 190.192L375.783 193.062C375.424 193.421 375.424 193.78 375.783 193.78L390.496 202.392C390.855 202.751 391.572 202.751 391.931 202.392L396.596 199.522C396.955 199.522 396.955 199.163 396.596 198.804Z" fill="#24126A"/>
<path d="M492.051 254.067L476.979 245.455C476.62 245.096 475.902 245.096 475.544 245.455L470.878 248.325C470.52 248.684 470.52 249.043 470.878 249.043L485.591 257.655C485.95 258.014 486.668 258.014 487.027 257.655L491.692 254.785C492.41 254.785 492.41 254.067 492.051 254.067Z" fill="#24126A"/>
<path d="M477.697 236.483L472.673 233.612C472.314 233.254 471.596 233.254 471.237 233.612L465.496 236.842C465.137 237.201 465.137 237.56 465.496 237.56L470.52 240.431C470.879 240.789 471.596 240.789 471.955 240.431L477.697 237.201C478.056 236.842 478.056 236.483 477.697 236.483Z" fill="#24126A"/>
<path d="M421.357 203.828L413.463 199.163C413.104 198.804 412.386 198.804 412.027 199.163L406.285 202.392C405.927 202.751 405.927 203.11 406.285 203.11L414.18 207.775C414.539 208.134 415.257 208.134 415.616 207.775L421.357 204.545C421.716 204.545 421.716 204.187 421.357 203.828Z" fill="#24126A"/>
<path d="M470.159 232.177L462.264 227.512C461.906 227.153 461.188 227.153 460.829 227.512L455.087 230.742C454.729 231.1 454.729 231.459 455.087 231.459L462.982 236.124C463.341 236.483 464.059 236.483 464.418 236.124L470.159 232.895C470.518 232.536 470.518 232.177 470.159 232.177Z" fill="#24126A"/>
<path d="M432.48 210.287L424.585 205.622C424.226 205.263 423.509 205.263 423.15 205.622L417.408 208.852C417.049 209.211 417.049 209.569 417.408 209.569L425.303 214.235C425.662 214.593 426.38 214.593 426.738 214.235L432.48 211.005C432.839 211.005 432.839 210.646 432.48 210.287Z" fill="#24126A"/>
<path d="M417.409 209.928L452.217 230.024C452.576 230.383 453.294 230.383 453.653 230.024L459.394 226.794C459.753 226.435 459.753 226.076 459.394 226.076L424.586 205.981L417.409 209.928Z" fill="#24126A"/>
<path d="M484.157 244.378L489.898 247.608C490.257 247.967 490.616 247.608 490.975 247.608L493.128 246.172C493.487 245.813 493.487 245.813 493.128 245.455L487.386 242.225C487.027 241.866 486.669 242.225 486.31 242.225L484.157 243.66C483.798 243.66 483.798 244.019 484.157 244.378Z" fill="#24126A"/>
<path d="M476.261 239.713L482.003 242.943C482.362 243.301 482.721 242.943 483.079 242.943L485.232 241.507C485.591 241.148 485.591 241.148 485.232 240.789L479.491 237.56C479.132 237.201 478.773 237.56 478.414 237.56L476.261 238.995C475.902 239.354 475.902 239.713 476.261 239.713Z" fill="#24126A"/>
<path d="M479.849 246.531L485.59 249.761C485.949 250.12 486.308 249.761 486.667 249.761L488.82 248.326C489.179 247.967 489.179 247.967 488.82 247.608L483.078 244.378C482.719 244.019 482.36 244.378 482.002 244.378L479.849 245.814C479.849 246.172 479.49 246.531 479.849 246.531Z" fill="#24126A"/>
</g>
</g>
</g>
<g opacity="0.8">
<path d="M285.711 251.196L280.687 248.325C280.328 247.967 280.328 247.608 280.687 247.249L286.429 244.019C286.788 243.66 287.505 243.66 287.864 244.019L292.888 246.89C293.247 247.249 293.247 247.608 292.888 247.967L287.146 251.196C286.788 251.196 286.07 251.196 285.711 251.196Z" fill="#24126A"/>
<path d="M293.245 255.503L288.222 252.632C287.863 252.273 287.863 251.914 288.222 251.555L293.963 248.326C294.322 247.967 295.04 247.967 295.399 248.326L300.422 251.196C300.781 251.555 300.781 251.914 300.422 252.273L294.681 255.503C294.322 255.503 293.604 255.861 293.245 255.503Z" fill="#24126A"/>
<path d="M300.784 259.809L295.76 256.938C295.401 256.579 295.401 256.22 295.76 255.861L301.501 252.632C301.86 252.273 302.578 252.273 302.937 252.632L307.961 255.503C308.32 255.861 308.32 256.22 307.961 256.579L302.219 259.809C302.219 260.168 301.501 260.168 300.784 259.809Z" fill="#24126A"/>
<path d="M311.549 256.22L306.525 253.349C306.166 252.991 306.166 252.632 306.525 252.273L311.549 249.402C311.908 249.043 312.626 249.043 312.985 249.402L318.009 252.273C318.367 252.632 318.367 252.991 318.009 253.349L312.985 256.22C312.626 256.579 311.908 256.579 311.549 256.22Z" fill="#24126A"/>
<path d="M319.084 260.526L314.06 257.656C313.701 257.297 313.701 256.938 314.06 256.579L319.084 253.708C319.443 253.349 320.16 253.349 320.519 253.708L325.543 256.579C325.902 256.938 325.902 257.297 325.543 257.656L320.519 260.526C320.519 260.885 319.801 260.885 319.084 260.526Z" fill="#24126A"/>
<path d="M326.979 265.191L321.955 262.321C321.596 261.962 321.596 261.603 321.955 261.244L326.979 258.373C327.338 258.014 328.056 258.014 328.415 258.373L333.439 261.244C333.797 261.603 333.797 261.962 333.439 262.321L328.415 265.191C328.056 265.191 327.338 265.191 326.979 265.191Z" fill="#24126A"/>
<path d="M334.514 269.498L329.49 266.627C329.131 266.268 329.131 265.909 329.49 265.55L334.514 262.68C334.872 262.321 335.59 262.321 335.949 262.68L340.973 265.55C341.332 265.909 341.332 266.268 340.973 266.627L335.949 269.498C335.59 269.857 334.872 269.857 334.514 269.498Z" fill="#24126A"/>
<path d="M342.408 273.804L337.384 270.933C337.026 270.574 337.026 270.215 337.384 269.857L342.408 266.986C342.767 266.627 343.485 266.627 343.844 266.986L348.868 269.857C349.227 270.215 349.227 270.574 348.868 270.933L343.844 273.804C343.485 274.163 342.767 274.163 342.408 273.804Z" fill="#24126A"/>
<path d="M349.947 278.469L344.923 275.598C344.565 275.239 344.565 274.881 344.923 274.522L349.947 271.651C350.306 271.292 351.024 271.292 351.383 271.651L356.407 274.522C356.766 274.881 356.766 275.239 356.407 275.598L351.383 278.469C351.024 278.469 350.306 278.469 349.947 278.469Z" fill="#24126A"/>
<path d="M357.838 282.775L352.814 279.904C352.456 279.546 352.456 279.187 352.814 278.828L357.838 275.957C358.197 275.598 358.915 275.598 359.274 275.957L364.298 278.828C364.657 279.187 364.657 279.546 364.298 279.904L359.274 282.775C358.915 283.134 358.197 283.134 357.838 282.775Z" fill="#24126A"/>
<path d="M365.377 287.44L360.353 284.57C359.994 284.211 359.994 283.852 360.353 283.493L365.377 280.622C365.735 280.263 366.453 280.263 366.812 280.622L371.836 283.493C372.195 283.852 372.195 284.211 371.836 284.57L366.812 287.44C366.453 287.44 365.735 287.44 365.377 287.44Z" fill="#24126A"/>
<path d="M372.911 291.746L367.887 288.876C367.528 288.517 367.528 288.158 367.887 287.799L372.911 284.928C373.27 284.569 373.988 284.569 374.346 284.928L379.37 287.799C379.729 288.158 379.729 288.517 379.37 288.876L374.346 291.746C373.988 291.746 373.27 292.105 372.911 291.746Z" fill="#24126A"/>
<path d="M380.807 296.053L375.783 293.182C375.424 292.823 375.424 292.464 375.783 292.105L380.807 289.235C381.166 288.876 381.883 288.876 382.242 289.235L387.266 292.105C387.625 292.464 387.625 292.823 387.266 293.182L382.242 296.053C381.883 296.412 381.166 296.412 380.807 296.053Z" fill="#24126A"/>
<path d="M323.033 254.067L318.009 251.196C317.65 250.837 317.65 250.479 318.009 250.12L323.033 247.249C323.392 246.89 324.109 246.89 324.468 247.249L329.492 250.12C329.851 250.479 329.851 250.837 329.492 251.196L324.468 254.067C324.109 254.426 323.392 254.426 323.033 254.067Z" fill="#24126A"/>
<path d="M315.137 249.761L310.114 246.89C309.755 246.531 309.755 246.172 310.114 245.814L315.137 242.943C315.496 242.584 316.214 242.584 316.573 242.943L321.597 245.814C321.956 246.172 321.956 246.531 321.597 246.89L316.573 249.761C316.214 249.761 315.496 249.761 315.137 249.761Z" fill="#24126A"/>
<path d="M307.244 245.096L296.478 238.995C296.119 238.636 296.119 238.278 296.478 237.919L301.502 235.048C301.861 234.689 302.578 234.689 302.937 235.048L313.703 241.148C314.062 241.507 314.062 241.866 313.703 242.225L308.679 245.096C308.32 245.455 307.602 245.455 307.244 245.096Z" fill="#24126A"/>
<path d="M312.625 239.713L304.013 234.689C303.654 234.33 303.654 233.971 304.013 233.613L309.037 230.742C309.395 230.383 310.113 230.383 310.472 230.742L319.084 235.766C319.443 236.125 319.443 236.483 319.084 236.842L314.06 239.713C313.702 239.713 312.984 239.713 312.625 239.713Z" fill="#24126A"/>
<path d="M330.568 258.732L325.543 255.861C325.185 255.503 325.185 255.144 325.543 254.785L330.568 251.914C330.926 251.555 331.644 251.555 332.003 251.914L337.027 254.785C337.386 255.144 337.386 255.503 337.027 255.861L332.003 258.732C331.644 258.732 330.926 258.732 330.568 258.732Z" fill="#24126A"/>
<path d="M338.102 263.038L333.078 260.168C332.719 259.809 332.719 259.45 333.078 259.091L338.102 256.22C338.461 255.861 339.179 255.861 339.537 256.22L344.561 259.091C344.92 259.45 344.92 259.809 344.561 260.168L339.537 263.038C339.537 263.038 338.82 263.397 338.102 263.038Z" fill="#24126A"/>
<path d="M345.997 267.345L340.973 264.474C340.615 264.115 340.615 263.756 340.973 263.397L345.997 260.526C346.356 260.168 347.074 260.168 347.433 260.526L352.457 263.397C352.816 263.756 352.816 264.115 352.457 264.474L347.433 267.345C347.074 267.703 346.356 267.703 345.997 267.345Z" fill="#24126A"/>
<path d="M353.535 272.01L348.511 269.139C348.152 268.78 348.152 268.421 348.511 268.062L353.535 265.191C353.894 264.833 354.611 264.833 354.97 265.191L359.994 268.062C360.353 268.421 360.353 268.78 359.994 269.139L354.97 272.01C354.611 272.01 353.894 272.01 353.535 272.01Z" fill="#24126A"/>
<path d="M361.427 276.316L356.403 273.445C356.045 273.086 356.045 272.727 356.403 272.369L361.427 269.498C361.786 269.139 362.504 269.139 362.863 269.498L367.887 272.369C368.246 272.727 368.246 273.086 367.887 273.445L362.863 276.316C362.504 276.675 361.786 276.675 361.427 276.316Z" fill="#24126A"/>
<path d="M368.965 280.622L363.941 277.751C363.582 277.392 363.582 277.034 363.941 276.675L368.965 273.804C369.324 273.445 370.041 273.445 370.4 273.804L375.424 276.675C375.783 277.034 375.783 277.392 375.424 277.751L370.4 280.622C370.041 280.981 369.324 280.981 368.965 280.622Z" fill="#24126A"/>
<path d="M376.861 285.287L371.837 282.416C371.478 282.057 371.478 281.699 371.837 281.34L376.861 278.469C377.22 278.11 377.938 278.11 378.296 278.469L383.32 281.34C383.679 281.699 383.679 282.057 383.32 282.416L378.296 285.287C377.938 285.287 377.22 285.287 376.861 285.287Z" fill="#24126A"/>
<path d="M384.396 289.593L379.372 286.723C379.013 286.364 379.013 286.005 379.372 285.646L384.396 282.775C384.755 282.416 385.472 282.416 385.831 282.775L390.855 285.646C391.214 286.005 391.214 286.364 390.855 286.723L385.831 289.593C385.472 289.952 384.755 289.952 384.396 289.593Z" fill="#24126A"/>
<path d="M391.93 293.9L386.906 291.029C386.547 290.67 386.547 290.311 386.906 289.952L391.93 287.082C392.289 286.723 393.007 286.723 393.366 287.082L398.389 289.952C398.748 290.311 398.748 290.67 398.389 291.029L393.366 293.9C393.007 294.259 392.289 294.259 391.93 293.9Z" fill="#24126A"/>
<path d="M405.566 301.794L394.801 295.694C394.442 295.335 394.442 294.976 394.801 294.617L399.825 291.747C400.184 291.388 400.901 291.388 401.26 291.747L412.026 297.847C412.385 298.206 412.385 298.565 412.026 298.924L407.002 301.794C406.643 302.153 406.284 302.153 405.566 301.794Z" fill="#24126A"/>
<path d="M420.64 293.182L411.31 287.799C410.951 287.44 410.951 287.081 411.31 286.722L416.334 283.852C416.693 283.493 417.411 283.493 417.769 283.852L427.1 289.234C427.458 289.593 427.458 289.952 427.1 290.311L422.076 293.182C421.717 293.541 420.999 293.541 420.64 293.182Z" fill="#24126A"/>
<path d="M344.203 257.656L339.179 254.785C338.82 254.426 338.82 254.067 339.179 253.708L344.203 250.837C344.562 250.479 345.279 250.479 345.638 250.837L350.662 253.708C351.021 254.067 351.021 254.426 350.662 254.785L345.638 257.656C345.279 258.015 344.562 258.015 344.203 257.656Z" fill="#24126A"/>
<path d="M336.307 252.99L331.283 250.12C330.925 249.761 330.925 249.402 331.283 249.043L336.307 246.172C336.666 245.813 337.384 245.813 337.743 246.172L342.767 249.043C343.126 249.402 343.126 249.761 342.767 250.12L337.743 252.99C337.384 253.349 336.666 253.349 336.307 252.99Z" fill="#24126A"/>
<path d="M328.416 248.684L323.392 245.814C323.033 245.455 323.033 245.096 323.392 244.737L328.416 241.866C328.775 241.507 329.492 241.507 329.851 241.866L334.875 244.737C335.234 245.096 335.234 245.455 334.875 245.814L329.851 248.684C329.492 248.684 328.775 248.684 328.416 248.684Z" fill="#24126A"/>
<path d="M320.52 244.019L315.496 241.148C315.137 240.79 315.137 240.431 315.496 240.072L320.52 237.201C320.879 236.842 321.597 236.842 321.956 237.201L326.98 240.072C327.338 240.431 327.338 240.79 326.98 241.148L321.956 244.019C321.597 244.378 320.879 244.378 320.52 244.019Z" fill="#24126A"/>
<path d="M351.74 261.962L346.716 259.091C346.358 258.732 346.358 258.373 346.716 258.014L351.74 255.144C352.099 254.785 352.817 254.785 353.176 255.144L358.2 258.014C358.559 258.373 358.559 258.732 358.2 259.091L353.176 261.962C352.817 262.321 352.099 262.321 351.74 261.962Z" fill="#24126A"/>
<path d="M359.275 266.627L354.251 263.756C353.892 263.397 353.892 263.038 354.251 262.68L359.275 259.809C359.634 259.45 360.352 259.45 360.71 259.809L365.734 262.68C366.093 263.038 366.093 263.397 365.734 263.756L360.71 266.627C360.352 266.627 359.634 266.627 359.275 266.627Z" fill="#24126A"/>
<path d="M367.171 270.933L362.147 268.062C361.788 267.704 361.788 267.345 362.147 266.986L367.171 264.115C367.53 263.756 368.248 263.756 368.606 264.115L373.631 266.986C373.989 267.345 373.989 267.704 373.631 268.062L368.606 270.933C368.248 271.292 367.53 271.292 367.171 270.933Z" fill="#24126A"/>
<path d="M374.706 275.598L369.682 272.727C369.323 272.369 369.323 272.01 369.682 271.651L374.706 268.78C375.064 268.421 375.782 268.421 376.141 268.78L381.165 271.651C381.524 272.01 381.524 272.369 381.165 272.727L376.141 275.598C375.782 275.598 375.064 275.598 374.706 275.598Z" fill="#24126A"/>
<path d="M382.601 279.904L377.577 277.034C377.218 276.675 377.218 276.316 377.577 275.957L382.601 273.086C382.96 272.727 383.678 272.727 384.037 273.086L389.06 275.957C389.419 276.316 389.419 276.675 389.06 277.034L384.037 279.904C383.678 279.904 382.96 280.263 382.601 279.904Z" fill="#24126A"/>
<path d="M390.136 284.211L385.112 281.34C384.753 280.981 384.753 280.622 385.112 280.263L390.136 277.392C390.494 277.034 391.212 277.034 391.571 277.392L396.595 280.263C396.954 280.622 396.954 280.981 396.595 281.34L391.571 284.211C391.212 284.57 390.494 284.57 390.136 284.211Z" fill="#24126A"/>
<path d="M397.673 288.876L392.649 286.005C392.29 285.646 392.29 285.287 392.649 284.928L397.673 282.058C398.032 281.699 398.75 281.699 399.108 282.058L404.132 284.928C404.491 285.287 404.491 285.646 404.132 286.005L399.108 288.876C398.75 288.876 398.391 288.876 397.673 288.876Z" fill="#24126A"/>
<path d="M405.569 293.182L400.545 290.311C400.186 289.952 400.186 289.593 400.545 289.234L405.569 286.364C405.927 286.005 406.645 286.005 407.004 286.364L412.028 289.234C412.387 289.593 412.387 289.952 412.028 290.311L407.004 293.182C406.645 293.541 405.927 293.541 405.569 293.182Z" fill="#24126A"/>
<path d="M413.103 297.488L408.079 294.617C407.72 294.258 407.72 293.9 408.079 293.541L413.103 290.67C413.462 290.311 414.18 290.311 414.539 290.67L419.562 293.541C419.921 293.9 419.921 294.258 419.562 294.617L414.539 297.488C414.18 297.847 413.462 297.847 413.103 297.488Z" fill="#24126A"/>
<path d="M339.896 246.89L334.872 244.019C334.513 243.66 334.513 243.301 334.872 242.943L339.896 240.072C340.254 239.713 340.972 239.713 341.331 240.072L346.355 242.943C346.714 243.301 346.714 243.66 346.355 244.019L341.331 246.89C340.972 246.89 340.254 246.89 339.896 246.89Z" fill="#24126A"/>
<path d="M332.361 242.225L327.337 239.354C326.978 238.995 326.978 238.637 327.337 238.278L332.361 235.407C332.72 235.048 333.438 235.048 333.797 235.407L338.821 238.278C339.179 238.637 339.179 238.995 338.821 239.354L333.797 242.225C333.438 242.584 332.72 242.584 332.361 242.225Z" fill="#24126A"/>
<path d="M324.827 237.919L319.803 235.048C319.444 234.689 319.444 234.33 319.803 233.971L324.827 231.101C325.186 230.742 325.903 230.742 326.262 231.101L331.286 233.971C331.645 234.33 331.645 234.689 331.286 235.048L326.262 237.919C325.903 238.278 325.186 238.278 324.827 237.919Z" fill="#24126A"/>
<path d="M316.932 233.613L311.908 230.742C311.549 230.383 311.549 230.024 311.908 229.665L316.932 226.795C317.291 226.436 318.008 226.436 318.367 226.795L323.391 229.665C323.75 230.024 323.75 230.383 323.391 230.742L318.367 233.613C318.008 233.613 317.291 233.613 316.932 233.613Z" fill="#24126A"/>
<path d="M324.827 228.947L319.803 226.077C319.444 225.718 319.444 225.359 319.803 225L321.597 223.924C321.956 223.565 322.674 223.565 323.032 223.924L328.056 226.794C328.415 227.153 328.415 227.512 328.056 227.871L326.262 228.947C325.903 229.306 325.186 229.306 324.827 228.947Z" fill="#24126A"/>
<path d="M334.874 234.689L329.85 231.818C329.491 231.46 329.491 231.101 329.85 230.742L331.644 229.665C332.003 229.306 332.721 229.306 333.08 229.665L338.104 232.536C338.462 232.895 338.462 233.254 338.104 233.613L336.309 234.689C335.95 235.048 335.233 235.048 334.874 234.689Z" fill="#24126A"/>
<path d="M342.408 238.995L337.384 236.124C337.026 235.766 337.026 235.407 337.384 235.048L339.179 233.971C339.538 233.613 340.255 233.613 340.614 233.971L345.638 236.842C345.997 237.201 345.997 237.56 345.638 237.919L343.844 238.995C343.485 239.354 342.767 239.354 342.408 238.995Z" fill="#24126A"/>
<path d="M349.947 243.66L344.923 240.79C344.565 240.431 344.565 240.072 344.923 239.713L346.718 238.636C347.077 238.278 347.794 238.278 348.153 238.636L353.177 241.507C353.536 241.866 353.536 242.225 353.177 242.584L351.383 243.66C351.383 243.66 350.665 243.66 349.947 243.66Z" fill="#24126A"/>
<path d="M357.838 247.967L352.814 245.096C352.456 244.737 352.456 244.378 352.814 244.019L354.609 242.943C354.968 242.584 355.685 242.584 356.044 242.943L361.068 245.814C361.427 246.172 361.427 246.531 361.068 246.89L359.274 247.967C358.915 247.967 358.197 247.967 357.838 247.967Z" fill="#24126A"/>
<path d="M400.186 272.369L395.162 269.498C394.803 269.139 394.803 268.78 395.162 268.421L396.956 267.345C397.315 266.986 398.033 266.986 398.392 267.345L403.415 270.215C403.774 270.574 403.774 270.933 403.415 271.292L401.621 272.369C401.262 272.727 400.545 272.727 400.186 272.369Z" fill="#24126A"/>
<path d="M407.72 276.675L402.696 273.804C402.338 273.445 402.338 273.086 402.696 272.728L404.491 271.651C404.85 271.292 405.567 271.292 405.926 271.651L410.95 274.522C411.309 274.881 411.309 275.239 410.95 275.598L409.156 276.675C408.797 277.034 408.079 277.034 407.72 276.675Z" fill="#24126A"/>
<path d="M415.616 281.34L410.592 278.469C410.233 278.11 410.233 277.751 410.592 277.392L412.386 276.316C412.745 275.957 413.463 275.957 413.822 276.316L418.845 279.187C419.204 279.545 419.204 279.904 418.845 280.263L417.051 281.34C416.692 281.34 415.975 281.34 415.616 281.34Z" fill="#24126A"/>
<path d="M423.15 285.646L418.126 282.775C417.768 282.416 417.768 282.058 418.126 281.699L419.921 280.622C420.28 280.263 420.997 280.263 421.356 280.622L426.38 283.493C426.739 283.852 426.739 284.211 426.38 284.57L424.586 285.646C424.227 285.646 423.509 286.005 423.15 285.646Z" fill="#24126A"/>
<path d="M347.792 251.196L342.768 248.326C342.409 247.967 342.409 247.608 342.768 247.249L347.792 244.378C348.151 244.019 348.868 244.019 349.227 244.378L354.251 247.249C354.61 247.608 354.61 247.967 354.251 248.326L349.227 251.196C348.868 251.196 348.151 251.555 347.792 251.196Z" fill="#24126A"/>
<path d="M355.329 255.502L350.305 252.632C349.947 252.273 349.947 251.914 350.305 251.555L355.329 248.684C355.688 248.325 356.406 248.325 356.765 248.684L361.789 251.555C362.148 251.914 362.148 252.273 361.789 252.632L356.765 255.502C356.406 255.861 355.688 255.861 355.329 255.502Z" fill="#24126A"/>
<path d="M362.864 260.168L357.84 257.297C357.481 256.938 357.481 256.579 357.84 256.22L362.864 253.349C363.223 252.99 363.941 252.99 364.299 253.349L369.323 256.22C369.682 256.579 369.682 256.938 369.323 257.297L364.299 260.168C364.299 260.168 363.582 260.168 362.864 260.168Z" fill="#24126A"/>
<path d="M370.759 264.474L365.735 261.603C365.377 261.244 365.377 260.885 365.735 260.526L370.759 257.656C371.118 257.297 371.836 257.297 372.195 257.656L377.219 260.526C377.578 260.885 377.578 261.244 377.219 261.603L372.195 264.474C371.836 264.833 371.118 264.833 370.759 264.474Z" fill="#24126A"/>
<path d="M378.294 268.78L373.27 265.909C372.911 265.55 372.911 265.192 373.27 264.833L378.294 261.962C378.653 261.603 379.37 261.603 379.729 261.962L384.753 264.833C385.112 265.192 385.112 265.55 384.753 265.909L379.729 268.78C379.37 269.139 378.653 269.139 378.294 268.78Z" fill="#24126A"/>
<path d="M386.189 273.445L381.165 270.574C380.807 270.216 380.807 269.857 381.165 269.498L386.189 266.627C386.548 266.268 387.266 266.268 387.625 266.627L392.649 269.498C393.008 269.857 393.008 270.216 392.649 270.574L387.625 273.445C387.266 273.445 386.548 273.445 386.189 273.445Z" fill="#24126A"/>
<path d="M393.724 277.751L388.7 274.88C388.341 274.522 388.341 274.163 388.7 273.804L393.724 270.933C394.083 270.574 394.8 270.574 395.159 270.933L400.183 273.804C400.542 274.163 400.542 274.522 400.183 274.88L395.159 277.751C394.8 278.11 394.083 278.11 393.724 277.751Z" fill="#24126A"/>
<path d="M401.619 282.058L396.595 279.187C396.237 278.828 396.237 278.469 396.595 278.11L401.619 275.239C401.978 274.881 402.696 274.881 403.055 275.239L408.079 278.11C408.437 278.469 408.437 278.828 408.079 279.187L403.055 282.058C402.696 282.416 401.978 282.416 401.619 282.058Z" fill="#24126A"/>
<path d="M409.158 286.723L404.134 283.852C403.775 283.493 403.775 283.134 404.134 282.775L409.158 279.904C409.516 279.546 410.234 279.546 410.593 279.904L415.617 282.775C415.976 283.134 415.976 283.493 415.617 283.852L410.593 286.723C410.234 286.723 409.516 286.723 409.158 286.723Z" fill="#24126A"/>
<path d="M303.653 251.555L288.941 242.943C288.582 242.584 288.582 242.225 288.941 241.866L293.964 238.995C294.323 238.636 295.041 238.636 295.4 238.995L310.113 247.608C310.472 247.967 310.472 248.325 310.113 248.684L305.089 251.555C304.73 251.914 304.012 251.914 303.653 251.555Z" fill="#24126A"/>
<path d="M398.03 306.101L383.317 297.488C382.958 297.129 382.958 296.77 383.317 296.412L388.341 293.541C388.7 293.182 389.418 293.182 389.777 293.541L404.489 302.153C404.848 302.512 404.848 302.871 404.489 303.23L399.465 306.101C399.107 306.459 398.389 306.459 398.03 306.101Z" fill="#24126A"/>
<path d="M367.528 298.206L362.504 295.335C362.146 294.976 362.146 294.617 362.504 294.258L368.246 291.029C368.605 290.67 369.323 290.67 369.681 291.029L374.705 293.9C375.064 294.258 375.064 294.617 374.705 294.976L368.964 298.206C368.605 298.565 367.887 298.565 367.528 298.206Z" fill="#24126A"/>
<path d="M311.549 265.909L303.655 261.244C303.296 260.885 303.296 260.526 303.655 260.168L309.396 256.938C309.755 256.579 310.473 256.579 310.832 256.938L318.726 261.603C319.085 261.962 319.085 262.321 318.726 262.68L312.985 265.909C312.626 266.268 311.908 266.268 311.549 265.909Z" fill="#24126A"/>
<path d="M359.995 293.9L352.1 289.234C351.741 288.876 351.741 288.517 352.1 288.158L357.842 284.928C358.2 284.569 358.918 284.569 359.277 284.928L367.172 289.593C367.531 289.952 367.531 290.311 367.172 290.67L361.43 293.9C361.071 294.258 360.354 294.258 359.995 293.9Z" fill="#24126A"/>
<path d="M322.673 272.369L314.778 267.704C314.419 267.345 314.419 266.986 314.778 266.627L320.52 263.397C320.879 263.038 321.596 263.038 321.955 263.397L329.85 268.062C330.209 268.421 330.209 268.78 329.85 269.139L324.108 272.369C323.749 272.727 323.032 272.727 322.673 272.369Z" fill="#24126A"/>
<path d="M322.315 263.397L356.765 283.493C357.124 283.852 357.124 284.211 356.765 284.569L350.664 288.158C350.306 288.517 349.588 288.517 349.229 288.158L314.779 268.062L322.315 263.397Z" fill="#24126A"/>
<path d="M389.059 306.459L394.442 309.689C394.801 310.048 394.801 310.048 394.442 310.407L391.93 311.842C391.571 312.201 390.853 312.201 390.494 311.842L385.112 308.613C384.753 308.254 384.753 308.254 385.112 307.895L387.624 306.459C387.983 306.101 388.7 306.101 389.059 306.459Z" fill="#24126A"/>
<path d="M381.166 301.794L386.549 305.024C386.908 305.383 386.908 305.383 386.549 305.742L384.037 307.177C383.679 307.536 382.961 307.536 382.602 307.177L377.219 303.947C376.86 303.589 376.86 303.589 377.219 303.23L379.731 301.794C380.09 301.794 380.808 301.794 381.166 301.794Z" fill="#24126A"/>
<path d="M373.629 297.488L379.012 300.718C379.371 301.077 379.371 301.077 379.012 301.436L376.5 302.871C376.141 303.23 375.423 303.23 375.064 302.871L369.682 299.641C369.323 299.283 369.323 299.282 369.682 298.924L372.194 297.488C372.552 297.129 373.27 297.129 373.629 297.488Z" fill="#24126A"/>
<path d="M385.47 299.282L390.853 302.512C391.212 302.871 391.212 302.871 390.853 303.23L388.341 304.665C387.982 305.024 387.264 305.024 386.905 304.665L381.523 301.435C381.164 301.077 381.164 301.077 381.523 300.718L384.035 299.282C384.394 299.282 385.111 299.282 385.47 299.282Z" fill="#24126A"/>
</g>
<path d="M463.702 179.785C463.344 179.785 462.985 179.785 462.626 179.426C461.549 178.708 460.832 177.273 460.832 175.838C460.832 175.12 461.19 174.761 461.908 174.761C462.626 174.402 462.985 174.761 463.702 175.12C464.779 175.837 465.497 177.273 465.497 178.708C465.497 179.426 465.138 179.785 464.42 179.785C464.061 179.785 464.061 179.785 463.702 179.785ZM462.626 175.12H462.267C461.908 175.12 461.549 175.479 461.549 175.838C461.191 176.914 461.908 177.991 462.985 178.708C463.344 179.067 464.061 179.067 464.42 178.708C464.779 178.708 465.138 178.349 465.138 177.991C465.497 176.914 464.779 175.837 463.702 175.12C463.344 175.479 462.985 175.12 462.626 175.12Z" fill="#42E8E0"/>
<path d="M470.162 183.373C469.803 183.373 469.444 183.373 469.085 183.014C468.008 182.297 467.291 180.861 467.291 179.426C467.291 178.708 467.65 178.349 468.367 178.349C469.085 177.991 469.444 178.349 470.162 178.708C471.238 179.426 471.956 180.861 471.956 182.297C471.956 183.014 471.597 183.373 470.879 183.373C470.52 183.373 470.52 183.373 470.162 183.373ZM469.085 179.067H468.726C468.367 179.067 468.008 179.426 468.008 179.785C467.65 180.861 468.367 181.938 469.444 182.656C469.803 183.014 470.52 183.014 470.879 182.656C471.238 182.656 471.597 182.297 471.597 181.938C471.956 180.861 471.238 179.785 470.162 179.067C469.444 179.067 469.085 179.067 469.085 179.067Z" fill="#42E8E0"/>
<path d="M477.698 185.885C477.339 186.962 476.263 187.321 475.186 186.603C474.11 185.885 473.392 184.45 473.751 183.373C474.11 182.297 475.186 181.938 476.263 182.656C477.339 183.373 478.057 184.45 477.698 185.885Z" fill="#42E8E0"/>
<path d="M356.404 115.909L352.816 113.756L353.175 112.321L356.763 114.115L356.404 115.909Z" fill="#42E8E0"/>
<path d="M361.43 118.78L357.841 116.627L358.2 115.191L361.43 116.986V118.78Z" fill="#42E8E0"/>
<path d="M351.382 113.038L344.205 108.732V107.297L351.741 111.603L351.382 113.038Z" fill="#42E8E0"/>
<path d="M530.09 406.938C527.937 406.938 525.784 406.579 524.349 405.502L493.846 387.919C492.411 386.842 491.334 385.766 491.334 384.33C491.334 382.895 492.052 381.818 493.846 380.742L524.349 363.158C527.578 361.364 532.602 361.364 535.832 363.158L566.334 380.742C567.769 381.818 568.846 382.895 568.846 384.33C568.846 385.766 568.128 386.842 566.334 387.919L535.832 405.502C534.396 406.22 532.243 406.938 530.09 406.938ZM524.707 405.144C527.578 406.938 532.602 406.938 535.473 405.144L565.975 387.56C567.411 386.842 568.128 385.766 568.128 384.689C568.128 383.612 567.411 382.536 565.975 381.818L535.473 364.235C532.602 362.44 527.578 362.44 524.707 364.235L494.205 381.818C492.769 382.536 492.052 383.612 492.052 384.689C492.052 385.766 492.769 386.842 494.205 387.56L524.707 405.144Z" fill="#42E8E0"/>
<path opacity="0.4" d="M569.563 377.871V367.464L567.769 366.388C567.41 369.617 563.463 371.77 560.233 372.129L538.343 385.048L529.013 388.636L498.511 372.847L499.228 372.488C496.716 371.412 495.281 368.541 493.846 366.029L491.692 367.105L490.616 367.464V378.23C490.616 379.665 491.334 381.101 493.128 381.818L523.63 399.402C527.219 401.555 532.96 401.555 536.549 399.402L567.051 381.818C568.846 380.383 569.563 379.306 569.563 377.871Z" fill="#42E8E0"/>
<path d="M569.563 368.541V361.723L567.769 360.646C567.41 363.876 563.463 366.029 560.233 366.388L538.343 379.306L529.013 382.895L498.511 367.105L499.228 366.747C496.716 365.67 495.281 362.799 493.846 360.287L491.692 361.364L490.616 361.723V368.9C490.616 370.335 491.334 371.77 493.128 372.488L523.63 390.072C527.219 392.225 532.96 392.225 536.549 390.072L567.051 372.488C568.846 371.412 569.563 369.976 569.563 368.541Z" fill="url(#paint10_linear_53_4163)"/>
<path opacity="0.3" d="M560.233 366.388L538.343 379.306L530.09 382.177V391.507C532.602 391.507 534.755 391.148 536.549 390.072L567.051 372.488C568.846 371.412 569.563 369.976 569.563 368.9V362.081L567.769 361.005H567.41C567.051 363.876 563.463 366.029 560.233 366.388Z" fill="#0F054C"/>
<path d="M499.228 366.388L527.936 349.881C529.012 349.163 530.806 349.163 532.242 349.881L560.591 366.388L560.232 366.747C563.462 366.388 567.409 364.235 567.768 361.005L535.83 343.421L526.5 340.909L518.964 345.216L493.486 360.287C495.28 362.44 496.716 365.311 499.228 366.388Z" fill="url(#paint11_linear_53_4163)"/>
<path opacity="0.3" d="M530.091 341.268L526.861 340.55L519.325 344.857L493.847 359.928C495.282 362.44 496.718 365.311 499.23 366.388L527.938 349.881C528.655 349.522 529.373 349.522 530.091 349.522V341.268Z" fill="#0F054C"/>
<path d="M523.632 382.895L493.129 365.311C489.541 363.158 489.541 359.928 493.129 357.775L523.632 340.191C527.22 338.038 532.962 338.038 536.55 340.191L567.053 357.775C570.641 359.928 570.641 363.158 567.053 365.311L536.55 382.895C532.962 385.048 527.22 385.048 523.632 382.895ZM532.244 342.703C531.167 341.986 529.373 341.986 527.938 342.703L497.435 360.287C496.359 361.005 496.359 362.081 497.435 362.799L527.938 380.383C529.014 381.101 530.809 381.101 532.244 380.383L562.746 362.799C563.823 362.081 563.823 361.005 562.746 360.287L532.244 342.703Z" fill="url(#paint12_linear_53_4163)"/>
<path d="M562.746 360.287L532.244 342.704C531.167 341.986 529.373 341.986 527.937 342.704L497.435 360.287C496.717 360.646 496.358 361.364 496.717 362.082C496.717 361.723 497.076 361.364 497.435 361.364L527.937 343.78C529.014 343.062 530.808 343.062 532.244 343.78L562.746 361.364C563.105 361.723 563.464 361.723 563.464 362.082C563.822 361.364 563.464 360.646 562.746 360.287Z" fill="white"/>
<path d="M567.053 365.311L536.551 382.895C532.962 385.048 527.22 385.048 523.632 382.895L493.129 365.311C491.694 364.235 490.617 363.158 490.617 362.081C490.259 363.517 491.335 364.952 493.129 366.388L523.632 383.971C527.22 386.125 532.962 386.125 536.551 383.971L567.053 366.388C568.847 365.311 569.924 363.876 569.565 362.081C569.565 363.158 568.488 364.235 567.053 365.311Z" fill="white"/>
<path d="M524.707 382.536L494.205 364.952C490.975 363.158 490.975 360.287 494.205 358.493L524.707 340.909C527.937 339.115 532.961 339.115 535.832 340.909L566.334 358.493C569.564 360.287 569.564 363.158 566.334 364.952L535.832 382.536C532.602 383.971 527.578 383.971 524.707 382.536ZM532.961 342.345C531.526 341.268 528.655 341.268 527.219 342.345L496.717 359.928C495.282 361.005 495.282 362.44 496.717 363.158L527.219 380.742C528.655 381.818 531.526 381.818 532.961 380.742L563.463 363.158C564.899 362.082 564.899 360.646 563.463 359.928L532.961 342.345Z" fill="url(#paint13_linear_53_4163)"/>
<path opacity="0.4" d="M532.241 342.704C531.165 341.986 529.371 341.986 527.935 342.704L497.433 360.287C496.356 361.005 496.356 362.082 497.433 362.799L527.935 380.383C529.012 381.101 530.806 381.101 532.241 380.383L562.744 362.799C563.82 362.082 563.82 361.005 562.744 360.287L532.241 342.704Z" fill="#42E8E0"/>
<g opacity="0.5">
<path d="M563.463 361.722V253.349H496.717V361.722C496.717 362.081 497.076 362.44 497.435 362.799L527.937 380.383C529.014 381.1 530.808 381.1 532.243 380.383L562.746 362.799C563.105 362.44 563.463 362.081 563.463 361.722Z" fill="url(#paint14_linear_53_4163)" fill-opacity="0.5" style="mix-blend-mode:lighten"/>
</g>
<path d="M220.759 184.809C218.606 184.809 216.453 184.45 215.017 183.373L184.515 165.79C183.08 164.713 182.003 163.636 182.003 162.201C182.003 160.766 182.721 159.689 184.515 158.613L215.017 141.029C218.247 139.234 223.271 139.234 226.501 141.029L257.003 158.613C258.438 159.689 259.515 160.766 259.515 162.201C259.515 163.636 258.797 164.713 257.003 165.79L226.501 183.373C225.065 184.45 222.912 184.809 220.759 184.809ZM215.376 183.014C218.247 184.809 223.271 184.809 226.142 183.014L256.644 165.431C258.08 164.713 258.797 163.636 258.797 162.56C258.797 161.483 258.08 160.407 256.644 159.689L226.142 142.105C223.271 140.311 218.247 140.311 215.376 142.105L184.874 159.689C183.438 160.407 182.721 161.483 182.721 162.56C182.721 163.636 183.438 164.713 184.874 165.431L215.376 183.014Z" fill="#42E8E0"/>
<path opacity="0.4" d="M260.232 155.742V145.335L258.438 144.259C258.079 147.488 254.132 149.641 250.902 150L229.012 162.919L219.682 166.507L189.179 150.718L189.897 150.359C187.385 149.282 185.95 146.412 184.514 143.9L182.361 144.976L181.285 145.335V156.101C181.285 157.536 182.002 158.971 183.797 159.689L214.299 177.273C217.887 179.426 223.629 179.426 227.218 177.273L257.72 159.689C259.514 158.613 260.232 157.177 260.232 155.742Z" fill="#42E8E0"/>
<path d="M260.232 146.412V139.593L258.438 138.517C258.079 141.746 254.132 143.9 250.902 144.258L229.012 157.177L219.682 160.766L189.179 144.976L189.897 144.617C187.385 143.541 185.95 140.67 184.514 138.158L182.361 139.235L181.285 139.593V146.77C181.285 148.206 182.002 149.641 183.797 150.359L214.299 167.943C217.887 170.096 223.629 170.096 227.218 167.943L257.72 150.359C259.514 149.282 260.232 147.847 260.232 146.412Z" fill="url(#paint15_linear_53_4163)"/>
<path opacity="0.3" d="M250.903 144.258L229.013 157.177L220.759 160.048V169.378C223.271 169.378 225.424 169.019 227.218 167.943L257.721 150.359C259.515 149.282 260.233 147.847 260.233 146.77V139.952L258.439 138.876H258.08C257.721 141.746 254.132 143.9 250.903 144.258Z" fill="#0F054C"/>
<path d="M214.3 160.766L183.798 143.182C180.209 141.029 180.209 137.799 183.798 135.646L214.3 118.062C217.889 115.909 223.63 115.909 227.219 118.062L257.721 135.646C261.31 137.799 261.31 141.029 257.721 143.182L227.219 160.766C223.63 162.919 217.889 162.919 214.3 160.766Z" fill="url(#paint16_linear_53_4163)"/>
<path d="M257.723 143.182L227.221 160.765C223.632 162.919 217.891 162.919 214.302 160.765L183.8 143.182C182.364 142.105 181.288 141.029 181.288 139.952C180.929 141.388 182.005 142.823 183.8 144.258L214.302 161.842C217.891 163.995 223.632 163.995 227.221 161.842L257.723 144.258C259.517 143.182 260.594 141.746 260.235 139.952C260.235 141.029 259.158 142.105 257.723 143.182Z" fill="white"/>
<path d="M153.654 357.775C151.501 357.775 149.348 357.416 147.912 356.34L117.41 338.756C115.975 337.68 114.898 336.603 114.898 335.168C114.898 333.732 115.616 332.656 117.41 331.579L147.912 313.995C151.142 312.201 156.166 312.201 159.396 313.995L189.898 331.579C191.333 332.656 192.41 333.732 192.41 335.168C192.41 336.603 191.692 337.68 189.898 338.756L159.396 356.34C157.601 357.416 155.807 357.775 153.654 357.775ZM148.271 355.981C151.142 357.775 156.166 357.775 159.037 355.981L189.539 338.397C190.975 337.68 191.692 336.603 191.692 335.526C191.692 334.45 190.975 333.373 189.539 332.656L159.037 315.072C156.166 313.278 151.142 313.278 148.271 315.072L117.769 332.656C116.333 333.373 115.616 334.45 115.616 335.526C115.616 336.603 116.333 337.68 117.769 338.397L148.271 355.981Z" fill="#42E8E0"/>
<path opacity="0.4" d="M193.126 328.708V318.302L191.332 317.225C190.973 320.455 187.026 322.608 183.796 322.967L161.906 335.885L152.576 339.474L122.074 323.684L122.791 323.325C120.279 322.249 118.844 319.378 117.409 316.866L115.256 317.943L114.179 318.302V329.067C114.179 330.502 114.897 331.938 116.691 332.656L147.193 350.239C150.782 352.392 156.524 352.392 160.112 350.239L190.614 332.656C192.05 331.579 193.126 330.144 193.126 328.708Z" fill="#42E8E0"/>
<path d="M193.126 319.737V312.919L191.332 311.842C190.973 315.072 187.026 317.225 183.796 317.584L161.906 330.502L152.576 334.091L122.074 318.302L122.791 317.943C120.279 316.866 118.844 313.995 117.409 311.483L115.256 312.56L114.179 312.919V320.096C114.179 321.531 114.897 322.967 116.691 323.684L147.193 341.268C150.782 343.421 156.524 343.421 160.112 341.268L190.614 323.684C192.05 322.249 193.126 321.172 193.126 319.737Z" fill="url(#paint17_linear_53_4163)"/>
<path opacity="0.3" d="M183.796 317.584L161.906 330.502L153.653 333.373V342.703C156.165 342.703 158.318 342.345 160.112 341.268L190.614 323.684C192.409 322.608 193.126 321.172 193.126 320.096V313.278L191.332 312.201H190.973C190.614 315.072 186.667 316.866 183.796 317.584Z" fill="#0F054C"/>
<path d="M147.194 334.091L116.691 316.507C113.103 314.354 113.103 311.124 116.691 308.971L147.194 291.388C150.782 289.235 156.524 289.235 160.112 291.388L190.615 308.971C194.203 311.124 194.203 314.354 190.615 316.507L160.112 334.091C156.524 335.885 150.782 335.885 147.194 334.091Z" fill="url(#paint18_linear_53_4163)"/>
<path d="M153.654 330.861C151.86 330.861 150.065 330.503 148.63 329.785L124.946 316.148C123.51 315.431 122.793 314.354 122.793 312.919C122.793 311.842 123.51 310.766 124.946 309.689L148.63 296.053C151.501 294.259 156.166 294.259 159.037 296.053L182.721 309.689C184.156 310.407 184.874 311.483 184.874 312.919C184.874 313.995 184.156 315.072 182.721 316.148L159.037 329.785C157.242 330.503 155.448 330.861 153.654 330.861ZM153.654 294.976C151.86 294.976 150.065 295.335 148.63 296.053L124.946 309.689C123.51 310.407 123.152 311.483 123.152 312.201C123.152 313.278 123.869 313.995 124.946 314.713L148.63 328.349C151.501 329.785 155.807 329.785 158.319 328.349L182.003 314.713C183.439 313.995 183.797 312.919 183.797 312.201C183.797 311.125 183.08 310.407 182.003 309.689L158.319 296.053C157.243 295.335 155.448 294.976 153.654 294.976Z" fill="#5351AF"/>
<path d="M190.617 316.507L160.114 334.091C156.526 336.244 150.784 336.244 147.196 334.091L116.693 316.507C115.258 315.431 114.181 314.354 114.181 313.278C113.822 314.713 114.899 316.149 116.693 317.584L147.196 335.168C150.784 337.321 156.526 337.321 160.114 335.168L190.617 317.584C192.411 316.507 193.488 315.072 193.129 313.278C192.77 314.354 192.052 315.431 190.617 316.507Z" fill="white"/>
<path d="M418.844 207.775C418.126 207.775 417.409 207.416 416.691 207.057L374.346 182.655C371.834 181.22 370.399 177.632 371.117 174.761C371.475 173.325 372.552 172.249 373.629 171.89C374.705 171.531 376.141 171.531 377.576 172.249L419.92 196.651C422.432 198.086 423.868 201.675 423.15 204.545C422.791 205.981 421.715 207.057 420.638 207.416C419.92 207.775 419.203 207.775 418.844 207.775ZM374.705 171.89C374.346 171.89 373.987 171.89 373.27 172.249C372.193 172.608 371.475 173.684 371.117 174.761C370.399 177.632 371.834 180.861 373.987 182.297L416.332 206.698C417.409 207.416 418.485 207.416 419.562 207.057C420.638 206.698 421.356 205.622 421.715 204.545C422.432 201.675 420.997 198.445 418.844 197.009L376.499 172.608C376.141 171.89 375.423 171.89 374.705 171.89Z" fill="#42E8E0"/>
<path d="M413.102 450C410.59 450 408.078 449.282 405.925 448.206L283.916 377.512C282.121 376.436 281.045 375 281.045 373.206C281.045 371.771 282.121 369.976 283.916 368.9L309.753 354.187L310.112 354.546L284.274 369.259C282.48 370.335 281.404 371.77 281.404 372.847C281.404 374.282 282.48 375.718 284.274 376.436L406.284 447.129C409.873 449.282 415.973 449.282 419.92 447.129L509.274 395.814L509.633 396.172L420.279 447.488C418.126 449.641 415.614 450 413.102 450Z" fill="#42E8E0"/>
<path d="M164.779 218.9C162.267 218.9 159.755 218.541 157.96 217.464L127.458 199.88C125.664 198.804 124.587 197.368 124.587 195.574C124.587 194.139 125.664 192.344 127.458 191.268L157.96 173.684C161.549 171.531 167.649 171.531 171.238 173.684L201.74 191.268C203.535 192.344 204.611 193.78 204.611 195.574C204.611 197.01 203.535 198.804 201.74 199.88L171.238 217.464C169.444 218.541 167.291 218.9 164.779 218.9ZM158.319 216.388C161.908 218.182 167.291 218.182 170.52 216.388L201.023 198.804C202.458 198.086 203.535 196.651 203.535 195.574C203.535 194.498 202.817 193.062 201.023 192.345L170.52 174.761C166.932 172.967 161.549 172.967 158.319 174.761L127.817 192.345C126.381 193.062 125.305 194.498 125.305 195.574C125.305 196.651 126.023 198.086 127.817 198.804L158.319 216.388Z" fill="#0F054C"/>
<path d="M265.258 429.904C262.746 429.904 260.234 429.545 258.44 428.469L227.937 410.885C226.143 409.809 225.066 408.373 225.066 406.579C225.066 405.143 226.143 403.349 227.937 402.273L258.44 384.689C262.028 382.536 268.129 382.536 271.717 384.689L302.22 402.273C304.014 403.349 305.09 404.785 305.09 406.579C305.09 408.014 304.014 409.809 302.22 410.885L271.717 428.469C270.282 429.545 267.77 429.904 265.258 429.904ZM265.258 384.33C263.105 384.33 260.952 384.689 259.157 385.766L228.655 403.349C227.22 404.067 226.143 405.502 226.143 406.579C226.143 407.655 226.861 409.091 228.655 409.809L259.157 427.392C262.746 429.187 268.129 429.187 271.358 427.392L301.861 409.809C303.296 409.091 304.373 407.655 304.373 406.579C304.373 405.502 303.655 404.067 301.861 403.349L271.358 385.766C269.923 384.689 267.411 384.33 265.258 384.33Z" fill="#03002D"/>
<path d="M218.606 372.129C217.17 372.129 215.735 371.77 214.299 371.053L174.108 347.727L174.467 347.368L214.658 370.694C217.17 372.129 220.041 372.129 222.553 370.694L280.328 337.321L280.687 337.679L222.912 371.053C221.477 371.77 220.041 372.129 218.606 372.129Z" fill="#42E8E0"/>
<path opacity="0.4" d="M562.746 122.01C565.521 122.01 567.77 119.76 567.77 116.986C567.77 114.211 565.521 111.962 562.746 111.962C559.972 111.962 557.723 114.211 557.723 116.986C557.723 119.76 559.972 122.01 562.746 122.01Z" fill="#42E8E0"/>
<path opacity="0.4" d="M562.745 119.139C563.934 119.139 564.898 118.175 564.898 116.986C564.898 115.796 563.934 114.832 562.745 114.832C561.556 114.832 560.592 115.796 560.592 116.986C560.592 118.175 561.556 119.139 562.745 119.139Z" fill="#42E8E0"/>
<path opacity="0.4" d="M485.593 33.0146C488.367 33.0146 490.617 30.7653 490.617 27.9907C490.617 25.216 488.367 22.9667 485.593 22.9667C482.818 22.9667 480.569 25.216 480.569 27.9907C480.569 30.7653 482.818 33.0146 485.593 33.0146Z" fill="#42E8E0"/>
<path opacity="0.4" d="M485.592 30.1437C486.781 30.1437 487.745 29.1797 487.745 27.9906C487.745 26.8015 486.781 25.8375 485.592 25.8375C484.403 25.8375 483.439 26.8015 483.439 27.9906C483.439 29.1797 484.403 30.1437 485.592 30.1437Z" fill="#42E8E0"/>
<path opacity="0.4" d="M630.209 139.593C632.984 139.593 635.233 137.344 635.233 134.569C635.233 131.795 632.984 129.545 630.209 129.545C627.435 129.545 625.185 131.795 625.185 134.569C625.185 137.344 627.435 139.593 630.209 139.593Z" fill="#42E8E0"/>
<path opacity="0.4" d="M630.209 136.722C631.398 136.722 632.362 135.758 632.362 134.569C632.362 133.38 631.398 132.416 630.209 132.416C629.019 132.416 628.055 133.38 628.055 134.569C628.055 135.758 629.019 136.722 630.209 136.722Z" fill="#42E8E0"/>
<defs>
<linearGradient id="paint0_linear_53_4163" x1="465.686" y1="306.105" x2="207.221" y2="306.105" gradientUnits="userSpaceOnUse">
<stop stop-color="#5761D7"/>
<stop offset="0.1779" stop-color="#5C66D9"/>
<stop offset="0.3876" stop-color="#6A73DF"/>
<stop offset="0.6134" stop-color="#8289E8"/>
<stop offset="0.849" stop-color="#A3A7F5"/>
<stop offset="1" stop-color="#BCBEFF"/>
</linearGradient>
<linearGradient id="paint1_linear_53_4163" x1="383.687" y1="300.088" x2="125.222" y2="300.088" gradientUnits="userSpaceOnUse">
<stop stop-color="#C0BFF6"/>
<stop offset="0.2938" stop-color="#C5C4F7"/>
<stop offset="0.6399" stop-color="#D3D2F9"/>
<stop offset="1" stop-color="#E9E9FD"/>
</linearGradient>
<linearGradient id="paint2_linear_53_4163" x1="378.936" y1="134.699" x2="669.347" y2="134.699" gradientUnits="userSpaceOnUse">
<stop stop-color="#42E8E0"/>
<stop offset="0.1055" stop-color="#37B6BF"/>
<stop offset="0.2197" stop-color="#2C87A1"/>
<stop offset="0.338" stop-color="#235F87"/>
<stop offset="0.4587" stop-color="#1C3F72"/>
<stop offset="0.5824" stop-color="#162561"/>
<stop offset="0.7105" stop-color="#121355"/>
<stop offset="0.8458" stop-color="#10084E"/>
<stop offset="1" stop-color="#0F054C"/>
</linearGradient>
<linearGradient id="paint3_linear_53_4163" x1="359.726" y1="145.46" x2="650.137" y2="145.46" gradientUnits="userSpaceOnUse">
<stop stop-color="#42E8E0"/>
<stop offset="0.1055" stop-color="#37B6BF"/>
<stop offset="0.2197" stop-color="#2C87A1"/>
<stop offset="0.338" stop-color="#235F87"/>
<stop offset="0.4587" stop-color="#1C3F72"/>
<stop offset="0.5824" stop-color="#162561"/>
<stop offset="0.7105" stop-color="#121355"/>
<stop offset="0.8458" stop-color="#10084E"/>
<stop offset="1" stop-color="#0F054C"/>
</linearGradient>
<linearGradient id="paint4_linear_53_4163" x1="494.991" y1="186.71" x2="312.082" y2="186.71" gradientUnits="userSpaceOnUse">
<stop stop-color="#C0BFF6"/>
<stop offset="0.2938" stop-color="#C5C4F7"/>
<stop offset="0.6399" stop-color="#D3D2F9"/>
<stop offset="1" stop-color="#E9E9FD"/>
</linearGradient>
<linearGradient id="paint5_linear_53_4163" x1="494.991" y1="233.618" x2="463.584" y2="233.618" gradientUnits="userSpaceOnUse">
<stop stop-color="#5761D7"/>
<stop offset="0.1779" stop-color="#5C66D9"/>
<stop offset="0.3876" stop-color="#6A73DF"/>
<stop offset="0.6134" stop-color="#8289E8"/>
<stop offset="0.849" stop-color="#A3A7F5"/>
<stop offset="1" stop-color="#BCBEFF"/>
</linearGradient>
<linearGradient id="paint6_linear_53_4163" x1="470.484" y1="284.798" x2="212.157" y2="284.798" gradientUnits="userSpaceOnUse">
<stop stop-color="#5761D7"/>
<stop offset="0.1779" stop-color="#5C66D9"/>
<stop offset="0.3876" stop-color="#6A73DF"/>
<stop offset="0.6134" stop-color="#8289E8"/>
<stop offset="0.849" stop-color="#A3A7F5"/>
<stop offset="1" stop-color="#BCBEFF"/>
</linearGradient>
<linearGradient id="paint7_linear_53_4163" x1="383.687" y1="277.734" x2="125.222" y2="277.734" gradientUnits="userSpaceOnUse">
<stop stop-color="#C0BFF6"/>
<stop offset="0.2938" stop-color="#C5C4F7"/>
<stop offset="0.6399" stop-color="#D3D2F9"/>
<stop offset="1" stop-color="#E9E9FD"/>
</linearGradient>
<linearGradient id="paint8_linear_53_4163" x1="569.819" y1="227.945" x2="311.492" y2="227.945" gradientUnits="userSpaceOnUse">
<stop stop-color="#5761D7"/>
<stop offset="0.1779" stop-color="#5C66D9"/>
<stop offset="0.3876" stop-color="#6A73DF"/>
<stop offset="0.6134" stop-color="#8289E8"/>
<stop offset="0.849" stop-color="#A3A7F5"/>
<stop offset="1" stop-color="#BCBEFF"/>
</linearGradient>
<linearGradient id="paint9_linear_53_4163" x1="483.022" y1="220.882" x2="224.557" y2="220.882" gradientUnits="userSpaceOnUse">
<stop stop-color="#C0BFF6"/>
<stop offset="0.2938" stop-color="#C5C4F7"/>
<stop offset="0.6399" stop-color="#D3D2F9"/>
<stop offset="1" stop-color="#E9E9FD"/>
</linearGradient>
<linearGradient id="paint10_linear_53_4163" x1="498.496" y1="347.88" x2="561.232" y2="384.101" gradientUnits="userSpaceOnUse">
<stop stop-color="#BCBEFF"/>
<stop offset="0.2271" stop-color="#AAADF8"/>
<stop offset="0.6802" stop-color="#7C83E5"/>
<stop offset="1" stop-color="#5761D7"/>
</linearGradient>
<linearGradient id="paint11_linear_53_4163" x1="502.26" y1="345.441" x2="558.209" y2="377.742" gradientUnits="userSpaceOnUse">
<stop offset="0.2421" stop-color="#5761D7"/>
<stop offset="0.3923" stop-color="#7A82E5"/>
<stop offset="0.5463" stop-color="#979CF0"/>
<stop offset="0.7" stop-color="#ACAFF8"/>
<stop offset="0.8519" stop-color="#B8BAFD"/>
<stop offset="1" stop-color="#BCBEFF"/>
</linearGradient>
<linearGradient id="paint12_linear_53_4163" x1="490.631" y1="361.571" x2="569.702" y2="361.571" gradientUnits="userSpaceOnUse">
<stop stop-color="#E9E9FD"/>
<stop offset="0.3601" stop-color="#D3D2F9"/>
<stop offset="0.7062" stop-color="#C5C4F7"/>
<stop offset="1" stop-color="#C0BFF6"/>
</linearGradient>
<linearGradient id="paint13_linear_53_4163" x1="491.844" y1="361.571" x2="568.488" y2="361.571" gradientUnits="userSpaceOnUse">
<stop stop-color="#E9E9FD"/>
<stop offset="0.3601" stop-color="#D3D2F9"/>
<stop offset="0.7062" stop-color="#C5C4F7"/>
<stop offset="1" stop-color="#C0BFF6"/>
</linearGradient>
<linearGradient id="paint14_linear_53_4163" x1="530.164" y1="380.814" x2="530.164" y2="253.093" gradientUnits="userSpaceOnUse">
<stop stop-color="#42E8E0" stop-opacity="0.5"/>
<stop offset="0.1055" stop-color="#37B6BF"/>
<stop offset="0.2197" stop-color="#2C87A1"/>
<stop offset="0.338" stop-color="#235F87"/>
<stop offset="0.4587" stop-color="#1C3F72"/>
<stop offset="0.5824" stop-color="#162561"/>
<stop offset="0.7105" stop-color="#121355"/>
<stop offset="0.8458" stop-color="#10084E"/>
<stop offset="1" stop-color="#0F054C"/>
</linearGradient>
<linearGradient id="paint15_linear_53_4163" x1="189.182" y1="125.769" x2="251.918" y2="161.99" gradientUnits="userSpaceOnUse">
<stop stop-color="#BCBEFF"/>
<stop offset="0.2271" stop-color="#AAADF8"/>
<stop offset="0.6802" stop-color="#7C83E5"/>
<stop offset="1" stop-color="#5761D7"/>
</linearGradient>
<linearGradient id="paint16_linear_53_4163" x1="181.317" y1="139.461" x2="260.388" y2="139.461" gradientUnits="userSpaceOnUse">
<stop stop-color="#E9E9FD"/>
<stop offset="0.3601" stop-color="#D3D2F9"/>
<stop offset="0.7062" stop-color="#C5C4F7"/>
<stop offset="1" stop-color="#C0BFF6"/>
</linearGradient>
<linearGradient id="paint17_linear_53_4163" x1="121.912" y1="298.98" x2="184.648" y2="335.2" gradientUnits="userSpaceOnUse">
<stop stop-color="#BCBEFF"/>
<stop offset="0.2271" stop-color="#AAADF8"/>
<stop offset="0.6802" stop-color="#7C83E5"/>
<stop offset="1" stop-color="#5761D7"/>
</linearGradient>
<linearGradient id="paint18_linear_53_4163" x1="114.046" y1="312.671" x2="193.117" y2="312.671" gradientUnits="userSpaceOnUse">
<stop stop-color="#E9E9FD"/>
<stop offset="0.3601" stop-color="#D3D2F9"/>
<stop offset="0.7062" stop-color="#C5C4F7"/>
<stop offset="1" stop-color="#C0BFF6"/>
</linearGradient>
</defs>
</svg>
